<svg width="58" height="58" viewBox="0 0 58 58" fill="none" xmlns="http://www.w3.org/2000/svg">
<mask id="mask0_41_770" style="mask-type:alpha" maskUnits="userSpaceOnUse" x="18" y="19" width="20" height="29">
<path d="M18.8002 30.1246C18.1676 24.4313 22.6241 19.4522 28.3525 19.4522C34.0808 19.4522 38.5374 24.4314 37.9048 30.1246L36.2275 45.2199C36.1108 46.27 35.2232 47.0645 34.1666 47.0645H22.5384C21.4817 47.0645 20.5941 46.27 20.4774 45.2199L18.8002 30.1246Z" fill="#17494D"/>
</mask>
<g mask="url(#mask0_41_770)">
<path fill-rule="evenodd" clip-rule="evenodd" d="M34.7029 45.0505L36.3801 29.9552C36.9118 25.1706 33.1665 20.9862 28.3525 20.9862C23.5384 20.9862 19.7932 25.1706 20.3248 29.9552L22.002 45.0505C22.0324 45.3238 22.2634 45.5305 22.5384 45.5305H34.1666C34.4415 45.5305 34.6725 45.3238 34.7029 45.0505ZM28.3525 19.4522C22.6241 19.4522 18.1676 24.4313 18.8002 30.1246L20.4774 45.2199C20.5941 46.27 21.4817 47.0645 22.5384 47.0645H34.1666C35.2232 47.0645 36.1108 46.2701 36.2275 45.2199L37.9048 30.1246C38.5374 24.4314 34.0808 19.4522 28.3525 19.4522Z" fill="#1B4B66"/>
<path fill-rule="evenodd" clip-rule="evenodd" d="M34.7379 11.1327L36.1275 13.5176C37.1911 15.3431 38.8184 18.1612 40.2438 20.6838C40.9563 21.9448 41.6201 23.1349 42.1383 24.0915C42.6443 25.0254 43.0419 25.7912 43.1919 26.1689C43.2604 26.3414 43.2819 26.5179 43.2913 26.6406C43.3019 26.778 43.3024 26.928 43.2971 27.0815C43.2865 27.3893 43.2508 27.7679 43.197 28.1965C43.089 29.0566 42.9002 30.1813 42.6566 31.4694C42.1688 34.0491 41.4519 37.3332 40.6918 40.5707C39.9317 43.8086 39.1257 47.011 38.4585 49.428C38.1254 50.6345 37.8239 51.6564 37.5778 52.3925C37.4557 52.7577 37.3411 53.071 37.238 53.3069C37.1876 53.4223 37.1295 53.5433 37.064 53.6498C37.0316 53.7027 36.985 53.7722 36.9234 53.8413C36.8732 53.8977 36.7507 54.0259 36.5525 54.1046C36.3987 54.1657 36.2495 54.1792 36.1794 54.1845C36.0885 54.1913 35.9924 54.1919 35.8997 54.1899C35.7132 54.1857 35.4844 54.1691 35.2289 54.1444C34.7149 54.0948 34.0357 54.007 33.2534 53.8945C31.6856 53.6691 29.6602 53.3381 27.6201 52.9945C26.3918 52.7877 25.1518 52.5752 24.001 52.3779C23.242 52.2479 22.5218 52.1244 21.8692 52.0136C20.1956 51.7295 19.0127 51.5369 18.6771 51.508C18.2775 51.4737 17.915 51.2545 17.6616 51.0764C17.3747 50.8748 17.0667 50.6072 16.7531 50.3061C16.1235 49.7014 15.3997 48.8916 14.669 48.0184C13.204 46.2676 11.6535 44.1917 10.6719 42.8135L10.2539 42.2265L10.7505 41.7044C10.9114 41.5352 11.0779 41.3563 11.252 41.1693C12.267 40.0785 13.5409 38.7096 15.4826 37.364C17.7663 35.7814 20.9488 34.2417 25.7549 33.0853C30.05 32.0519 32.1024 28.957 33.1612 25.1985C33.98 22.2919 34.1684 19.1329 34.3334 16.3659C34.3855 15.4923 34.4353 14.6579 34.5018 13.8828L34.7379 11.1327ZM36.0558 16.8789C35.8939 19.5653 35.6629 22.7632 34.8434 25.6724C33.6877 29.7749 31.3013 33.5483 26.1637 34.7845C21.537 35.8977 18.5599 37.3577 16.4781 38.8004C14.7025 40.031 13.5599 41.257 12.5469 42.344C12.5356 42.3561 12.5243 42.3682 12.513 42.3803C13.4678 43.6961 14.7743 45.4208 16.0094 46.8968C16.7245 47.7515 17.4013 48.5054 17.9637 49.0456C18.2461 49.3168 18.482 49.5169 18.6664 49.6464C18.7907 49.7338 18.8558 49.7632 18.8715 49.771C19.3397 49.8175 20.5926 50.0242 22.1618 50.2906C22.8204 50.4024 23.5425 50.5262 24.3019 50.6563C25.4495 50.853 26.6823 51.0643 27.9103 51.2711C29.949 51.6145 31.9567 51.9424 33.5021 52.1647C34.2763 52.276 34.9236 52.3592 35.3968 52.4048C35.515 52.4163 35.619 52.425 35.7088 52.4312C35.7685 52.2782 35.8392 52.0808 35.9203 51.8383C36.1516 51.1463 36.4435 50.1593 36.7738 48.9629C37.4333 46.5741 38.2336 43.3948 38.9904 40.1713C39.7473 36.9473 40.458 33.6901 40.9394 31.1446C41.1804 29.8701 41.3616 28.7862 41.4629 27.9788C41.5138 27.5736 41.5425 27.2538 41.5504 27.0216C41.5544 26.9052 41.5527 26.8249 41.5488 26.7746C41.5486 26.7718 41.5484 26.7691 41.5481 26.7667C41.426 26.4789 41.0959 25.8362 40.6017 24.9241C40.0906 23.9808 39.4326 22.8009 38.7222 21.5436C37.8508 20.0015 36.9032 18.3476 36.0558 16.8789ZM41.5449 26.7392C41.5449 26.7392 41.5452 26.7403 41.5455 26.7427C41.5451 26.7405 41.5449 26.7393 41.5449 26.7392ZM36.0488 52.4417C36.0483 52.4417 36.0478 52.4418 36.0473 52.4418C36.0596 52.4401 36.0613 52.4407 36.0488 52.4417Z" fill="#1B4B66"/>
<path fill-rule="evenodd" clip-rule="evenodd" d="M33.691 34.136C34.1125 34.1781 34.42 34.554 34.3778 34.9755L33.6108 40.8979C33.5687 41.3194 33.1928 41.627 32.7713 41.5848C32.3498 41.5427 32.0423 41.1668 32.0844 40.7453L32.8514 34.8229C32.8936 34.4014 33.2695 34.0938 33.691 34.136Z" fill="#1B4B66"/>
</g>
<path fill-rule="evenodd" clip-rule="evenodd" d="M26.39 17.1511C26.0599 17.1511 25.7668 17.3624 25.6624 17.6756L24.916 19.9148C25.0116 19.8939 25.1105 19.8728 25.2121 19.8517C26.1439 19.6581 27.3586 19.4522 28.3524 19.4522C29.3462 19.4522 30.5609 19.6581 31.4927 19.8517C31.5943 19.8728 31.6932 19.8939 31.7888 19.9148L31.0424 17.6756C30.938 17.3624 30.6449 17.1511 30.3148 17.1511H26.39ZM32.7504 21.7256L32.7444 21.7239L32.7229 21.7181C32.7035 21.7128 32.6742 21.705 32.636 21.6949C32.5595 21.6748 32.4472 21.6457 32.3065 21.6107C32.0246 21.5406 31.6301 21.4471 31.1806 21.3537C30.2669 21.1638 29.1806 20.9862 28.3524 20.9862C27.5242 20.9862 26.4379 21.1638 25.5242 21.3537C25.0747 21.4471 24.6802 21.5406 24.3983 21.6107C24.2576 21.6457 24.1453 21.6748 24.0688 21.6949C24.0306 21.705 24.0013 21.7128 23.9819 21.7181L23.9604 21.7239L23.9544 21.7256L22.5679 22.1081L24.2071 17.1905C24.5203 16.2509 25.3996 15.6171 26.39 15.6171H30.3148C31.3052 15.6171 32.1845 16.2509 32.4977 17.1905L34.1369 22.1081L32.7504 21.7256Z" fill="#1B4B66"/>
<path d="M26.8184 13.3161V17.1511H29.8864V13.3161C29.8864 12.4689 29.1996 11.7821 28.3524 11.7821C27.5052 11.7821 26.8184 12.4689 26.8184 13.3161Z" fill="#1B4B66"/>
<path d="M29.4876 12.3184L29.8867 13.3161L21.4589 13.6402C20.6554 13.6712 20.0203 12.9666 20.134 12.1707C20.2277 11.5149 20.8035 11.037 21.4653 11.0658L28.13 11.3555C28.7324 11.3817 29.2637 11.7585 29.4876 12.3184Z" fill="#1B4B66"/>
<path d="M33.2313 43.1226C33.2313 43.5463 32.8879 43.8897 32.4643 43.8897C32.0407 43.8897 31.6973 43.5463 31.6973 43.1226C31.6973 42.699 32.0407 42.3556 32.4643 42.3556C32.8879 42.3556 33.2313 42.699 33.2313 43.1226Z" fill="#1B4B66"/>
<mask id="mask1_41_770" style="mask-type:alpha" maskUnits="userSpaceOnUse" x="18" y="19" width="20" height="29">
<path d="M18.8002 30.1246C18.1676 24.4313 22.6241 19.4522 28.3525 19.4522C34.0808 19.4522 38.5374 24.4314 37.9048 30.1246L36.2275 45.2199C36.1108 46.27 35.2232 47.0645 34.1666 47.0645H22.5384C21.4817 47.0645 20.5941 46.27 20.4774 45.2199L18.8002 30.1246Z" fill="#17494D"/>
</mask>
<g mask="url(#mask1_41_770)">
<path d="M27.5 33L19.5 36L20.5 40L22 46.5H33.5L35.5 45.5L36.5 37.5L37.5 30L36 24.5L34.5 24L32.5 28.5L30.5 31.5L27.5 33Z" fill="url(#paint0_linear_41_770)"/>
<path fill-rule="evenodd" clip-rule="evenodd" d="M34.7029 45.0505L36.3801 29.9552C36.9118 25.1706 33.1665 20.9862 28.3525 20.9862C23.5384 20.9862 19.7932 25.1706 20.3248 29.9552L22.002 45.0505C22.0324 45.3238 22.2634 45.5305 22.5384 45.5305H34.1666C34.4415 45.5305 34.6725 45.3238 34.7029 45.0505ZM28.3525 19.4522C22.6241 19.4522 18.1676 24.4313 18.8002 30.1246L20.4774 45.2199C20.5941 46.27 21.4817 47.0645 22.5384 47.0645H34.1666C35.2232 47.0645 36.1108 46.2701 36.2275 45.2199L37.9048 30.1246C38.5374 24.4314 34.0808 19.4522 28.3525 19.4522Z" fill="#1B4B66"/>
<path fill-rule="evenodd" clip-rule="evenodd" d="M34.7379 11.1327L36.1275 13.5176C37.1911 15.3431 38.8184 18.1612 40.2438 20.6838C40.9563 21.9448 41.6201 23.1349 42.1383 24.0915C42.6443 25.0254 43.0419 25.7912 43.1919 26.1689C43.2604 26.3414 43.2819 26.5179 43.2913 26.6406C43.3019 26.778 43.3024 26.928 43.2971 27.0815C43.2865 27.3893 43.2508 27.7679 43.197 28.1965C43.089 29.0566 42.9002 30.1813 42.6566 31.4694C42.1688 34.0491 41.4519 37.3332 40.6918 40.5707C39.9317 43.8086 39.1257 47.011 38.4585 49.428C38.1254 50.6345 37.8239 51.6564 37.5778 52.3925C37.4557 52.7577 37.3411 53.071 37.238 53.3069C37.1876 53.4223 37.1295 53.5433 37.064 53.6498C37.0316 53.7027 36.985 53.7722 36.9234 53.8413C36.8732 53.8977 36.7507 54.0259 36.5525 54.1046C36.3987 54.1657 36.2495 54.1792 36.1794 54.1845C36.0885 54.1913 35.9924 54.1919 35.8997 54.1899C35.7132 54.1857 35.4844 54.1691 35.2289 54.1444C34.7149 54.0948 34.0357 54.007 33.2534 53.8945C31.6856 53.6691 29.6602 53.3381 27.6201 52.9945C26.3918 52.7877 25.1518 52.5752 24.001 52.3779C23.242 52.2479 22.5218 52.1244 21.8692 52.0136C20.1956 51.7295 19.0127 51.5369 18.6771 51.508C18.2775 51.4737 17.915 51.2545 17.6616 51.0764C17.3747 50.8748 17.0667 50.6072 16.7531 50.3061C16.1235 49.7014 15.3997 48.8916 14.669 48.0184C13.204 46.2676 11.6535 44.1917 10.6719 42.8135L10.2539 42.2265L10.7505 41.7044C10.9114 41.5352 11.0779 41.3563 11.252 41.1693C12.267 40.0785 13.5409 38.7096 15.4826 37.364C17.7663 35.7814 20.9488 34.2417 25.7549 33.0853C30.05 32.0519 32.1024 28.957 33.1612 25.1985C33.98 22.2919 34.1684 19.1329 34.3334 16.3659C34.3855 15.4923 34.4353 14.6579 34.5018 13.8828L34.7379 11.1327ZM36.0558 16.8789C35.8939 19.5653 35.6629 22.7632 34.8434 25.6724C33.6877 29.7749 31.3013 33.5483 26.1637 34.7845C21.537 35.8977 18.5599 37.3577 16.4781 38.8004C14.7025 40.031 13.5599 41.257 12.5469 42.344C12.5356 42.3561 12.5243 42.3682 12.513 42.3803C13.4678 43.6961 14.7743 45.4208 16.0094 46.8968C16.7245 47.7515 17.4013 48.5054 17.9637 49.0456C18.2461 49.3168 18.482 49.5169 18.6664 49.6464C18.7907 49.7338 18.8558 49.7632 18.8715 49.771C19.3397 49.8175 20.5926 50.0242 22.1618 50.2906C22.8204 50.4024 23.5425 50.5262 24.3019 50.6563C25.4495 50.853 26.6823 51.0643 27.9103 51.2711C29.949 51.6145 31.9567 51.9424 33.5021 52.1647C34.2763 52.276 34.9236 52.3592 35.3968 52.4048C35.515 52.4163 35.619 52.425 35.7088 52.4312C35.7685 52.2782 35.8392 52.0808 35.9203 51.8383C36.1516 51.1463 36.4435 50.1593 36.7738 48.9629C37.4333 46.5741 38.2336 43.3948 38.9904 40.1713C39.7473 36.9473 40.458 33.6901 40.9394 31.1446C41.1804 29.8701 41.3616 28.7862 41.4629 27.9788C41.5138 27.5736 41.5425 27.2538 41.5504 27.0216C41.5544 26.9052 41.5527 26.8249 41.5488 26.7746C41.5486 26.7718 41.5484 26.7691 41.5481 26.7667C41.426 26.4789 41.0959 25.8362 40.6017 24.9241C40.0906 23.9808 39.4326 22.8009 38.7222 21.5436C37.8508 20.0015 36.9032 18.3476 36.0558 16.8789ZM41.5449 26.7392C41.5449 26.7392 41.5452 26.7403 41.5455 26.7427C41.5451 26.7405 41.5449 26.7393 41.5449 26.7392ZM36.0488 52.4417C36.0483 52.4417 36.0478 52.4418 36.0473 52.4418C36.0596 52.4401 36.0613 52.4407 36.0488 52.4417Z" fill="#1B4B66"/>
<path fill-rule="evenodd" clip-rule="evenodd" d="M33.691 34.136C34.1125 34.1781 34.42 34.554 34.3778 34.9755L33.6108 40.8979C33.5687 41.3194 33.1928 41.627 32.7713 41.5848C32.3498 41.5427 32.0423 41.1668 32.0844 40.7453L32.8514 34.8229C32.8936 34.4014 33.2695 34.0938 33.691 34.136Z" fill="#1B4B66"/>
</g>
<path fill-rule="evenodd" clip-rule="evenodd" d="M26.39 17.1511C26.0599 17.1511 25.7668 17.3624 25.6624 17.6756L24.916 19.9148C25.0116 19.8939 25.1105 19.8728 25.2121 19.8517C26.1439 19.6581 27.3586 19.4522 28.3524 19.4522C29.3462 19.4522 30.5609 19.6581 31.4927 19.8517C31.5943 19.8728 31.6932 19.8939 31.7888 19.9148L31.0424 17.6756C30.938 17.3624 30.6449 17.1511 30.3148 17.1511H26.39ZM32.7504 21.7256L32.7444 21.7239L32.7229 21.7181C32.7035 21.7128 32.6742 21.705 32.636 21.6949C32.5595 21.6748 32.4472 21.6457 32.3065 21.6107C32.0246 21.5406 31.6301 21.4471 31.1806 21.3537C30.2669 21.1638 29.1806 20.9862 28.3524 20.9862C27.5242 20.9862 26.4379 21.1638 25.5242 21.3537C25.0747 21.4471 24.6802 21.5406 24.3983 21.6107C24.2576 21.6457 24.1453 21.6748 24.0688 21.6949C24.0306 21.705 24.0013 21.7128 23.9819 21.7181L23.9604 21.7239L23.9544 21.7256L22.5679 22.1081L24.2071 17.1905C24.5203 16.2509 25.3996 15.6171 26.39 15.6171H30.3148C31.3052 15.6171 32.1845 16.2509 32.4977 17.1905L34.1369 22.1081L32.7504 21.7256Z" fill="#1B4B66"/>
<path d="M26.8184 13.3161V17.1511H29.8864V13.3161C29.8864 12.4689 29.1996 11.7821 28.3524 11.7821C27.5052 11.7821 26.8184 12.4689 26.8184 13.3161Z" fill="#1B4B66"/>
<path d="M29.4876 12.3184L29.8867 13.3161L21.4589 13.6402C20.6554 13.6712 20.0203 12.9666 20.134 12.1707C20.2277 11.5149 20.8035 11.037 21.4653 11.0658L28.13 11.3555C28.7324 11.3817 29.2637 11.7585 29.4876 12.3184Z" fill="#1B4B66"/>
<path d="M33.2313 43.1226C33.2313 43.5463 32.8879 43.8897 32.4643 43.8897C32.0407 43.8897 31.6973 43.5463 31.6973 43.1226C31.6973 42.699 32.0407 42.3556 32.4643 42.3556C32.8879 42.3556 33.2313 42.699 33.2313 43.1226Z" fill="#1B4B66"/>
<defs>
<linearGradient id="paint0_linear_41_770" x1="28" y1="21.5" x2="32" y2="46" gradientUnits="userSpaceOnUse">
<stop stop-color="white" stop-opacity="0"/>
<stop offset="1" stop-color="#17494D" stop-opacity="0.57"/>
</linearGradient>
</defs>
</svg>
