<svg width="72" height="37" viewBox="0 0 72 37" fill="none" xmlns="http://www.w3.org/2000/svg">
<g clip-path="url(#clip0_2161_1297)">
<path d="M43.5787 6.75H28.4212C28.2367 6.75 28.0586 6.81806 27.921 6.94115C27.7835 7.06425 27.6962 7.23373 27.6758 7.41718L26.3425 19.4172C26.3308 19.522 26.3414 19.6281 26.3736 19.7286C26.4057 19.829 26.4587 19.9216 26.529 20.0002C26.5994 20.0788 26.6855 20.1417 26.7818 20.1847C26.8781 20.2278 26.9824 20.25 27.0879 20.25H44.912C45.0175 20.25 45.1218 20.2278 45.2181 20.1847C45.3144 20.1417 45.4005 20.0788 45.4708 20.0002C45.5412 19.9216 45.5942 19.829 45.6263 19.7286C45.6585 19.6281 45.6691 19.522 45.6574 19.4172L44.3241 7.41718C44.3037 7.23373 44.2164 7.06425 44.0789 6.94115C43.9413 6.81806 43.7632 6.75 43.5787 6.75Z" stroke="#1B4B66" stroke-width="2" stroke-linecap="round" stroke-linejoin="round"/>
<path d="M32.25 5.75C32.25 4.75544 32.6451 3.80161 33.3483 3.09835C34.0516 2.39509 35.0054 2 36 2C36.9946 2 37.9484 2.39509 38.6517 3.09835C39.3549 3.80161 39.75 4.75544 39.75 5.75" stroke="#1B4B66" stroke-width="2" stroke-linecap="round" stroke-linejoin="round"/>
</g>
<path d="M26.4216 34C26.3336 34 26.2656 33.976 26.2176 33.928C26.1696 33.872 26.1456 33.804 26.1456 33.724V25.888C26.1456 25.8 26.1696 25.732 26.2176 25.684C26.2656 25.628 26.3336 25.6 26.4216 25.6H29.7096C30.3096 25.6 30.7976 25.7 31.1736 25.9C31.5576 26.092 31.8376 26.356 32.0136 26.692C32.1976 27.028 32.2896 27.404 32.2896 27.82C32.2896 28.148 32.2336 28.432 32.1216 28.672C32.0176 28.904 31.8856 29.096 31.7256 29.248C31.5656 29.392 31.4096 29.504 31.2576 29.584C31.5696 29.736 31.8456 29.984 32.0856 30.328C32.3336 30.672 32.4576 31.088 32.4576 31.576C32.4576 32.016 32.3576 32.42 32.1576 32.788C31.9576 33.156 31.6576 33.452 31.2576 33.676C30.8656 33.892 30.3776 34 29.7936 34H26.4216ZM27.3216 33.028H29.6376C30.1576 33.028 30.5576 32.888 30.8376 32.608C31.1176 32.328 31.2576 31.984 31.2576 31.576C31.2576 31.152 31.1176 30.804 30.8376 30.532C30.5576 30.252 30.1576 30.112 29.6376 30.112H27.3216V33.028ZM27.3216 29.152H29.5296C30.0416 29.152 30.4296 29.036 30.6936 28.804C30.9576 28.564 31.0896 28.24 31.0896 27.832C31.0896 27.424 30.9576 27.112 30.6936 26.896C30.4296 26.68 30.0416 26.572 29.5296 26.572H27.3216V29.152ZM35.7452 34.12C35.3452 34.12 34.9812 34.04 34.6532 33.88C34.3252 33.72 34.0612 33.504 33.8612 33.232C33.6612 32.96 33.5612 32.652 33.5612 32.308C33.5612 31.756 33.7852 31.316 34.2332 30.988C34.6812 30.66 35.2652 30.444 35.9852 30.34L37.7732 30.088V29.74C37.7732 29.356 37.6612 29.056 37.4372 28.84C37.2212 28.624 36.8652 28.516 36.3692 28.516C36.0092 28.516 35.7172 28.588 35.4932 28.732C35.2772 28.876 35.1252 29.06 35.0372 29.284C34.9892 29.404 34.9052 29.464 34.7852 29.464H34.2452C34.1572 29.464 34.0892 29.44 34.0412 29.392C34.0012 29.336 33.9812 29.272 33.9812 29.2C33.9812 29.08 34.0252 28.932 34.1132 28.756C34.2092 28.58 34.3532 28.408 34.5452 28.24C34.7372 28.072 34.9812 27.932 35.2772 27.82C35.5812 27.7 35.9492 27.64 36.3812 27.64C36.8612 27.64 37.2652 27.704 37.5932 27.832C37.9212 27.952 38.1772 28.116 38.3612 28.324C38.5532 28.532 38.6892 28.768 38.7692 29.032C38.8572 29.296 38.9012 29.564 38.9012 29.836V33.724C38.9012 33.804 38.8732 33.872 38.8172 33.928C38.7692 33.976 38.7052 34 38.6252 34H38.0732C37.9852 34 37.9172 33.976 37.8692 33.928C37.8212 33.872 37.7972 33.804 37.7972 33.724V33.208C37.6932 33.352 37.5532 33.496 37.3772 33.64C37.2012 33.776 36.9812 33.892 36.7172 33.988C36.4532 34.076 36.1292 34.12 35.7452 34.12ZM35.9972 33.22C36.3252 33.22 36.6252 33.152 36.8972 33.016C37.1692 32.872 37.3812 32.652 37.5332 32.356C37.6932 32.06 37.7732 31.688 37.7732 31.24V30.904L36.3812 31.108C35.8132 31.188 35.3852 31.324 35.0972 31.516C34.8092 31.7 34.6652 31.936 34.6652 32.224C34.6652 32.448 34.7292 32.636 34.8572 32.788C34.9932 32.932 35.1612 33.04 35.3612 33.112C35.5692 33.184 35.7812 33.22 35.9972 33.22ZM43.1823 36.64C42.6383 36.64 42.1903 36.568 41.8383 36.424C41.4943 36.28 41.2223 36.104 41.0223 35.896C40.8303 35.696 40.6903 35.492 40.6023 35.284C40.5223 35.084 40.4783 34.924 40.4703 34.804C40.4623 34.724 40.4863 34.656 40.5423 34.6C40.6063 34.544 40.6743 34.516 40.7463 34.516H41.3223C41.3943 34.516 41.4543 34.532 41.5023 34.564C41.5503 34.596 41.5903 34.664 41.6223 34.768C41.6703 34.888 41.7423 35.02 41.8383 35.164C41.9343 35.316 42.0823 35.444 42.2823 35.548C42.4823 35.66 42.7623 35.716 43.1223 35.716C43.4983 35.716 43.8143 35.664 44.0703 35.56C44.3263 35.464 44.5183 35.288 44.6463 35.032C44.7823 34.784 44.8503 34.44 44.8503 34V33.184C44.6583 33.432 44.4063 33.64 44.0943 33.808C43.7823 33.968 43.3903 34.048 42.9183 34.048C42.4703 34.048 42.0863 33.972 41.7663 33.82C41.4463 33.66 41.1823 33.448 40.9743 33.184C40.7743 32.912 40.6223 32.604 40.5183 32.26C40.4223 31.916 40.3663 31.556 40.3503 31.18C40.3423 30.956 40.3423 30.736 40.3503 30.52C40.3663 30.144 40.4223 29.784 40.5183 29.44C40.6223 29.096 40.7743 28.788 40.9743 28.516C41.1823 28.244 41.4463 28.032 41.7663 27.88C42.0863 27.72 42.4703 27.64 42.9183 27.64C43.3983 27.64 43.7943 27.732 44.1063 27.916C44.4263 28.092 44.6863 28.308 44.8863 28.564V28.048C44.8863 27.968 44.9103 27.9 44.9583 27.844C45.0143 27.788 45.0823 27.76 45.1623 27.76H45.7143C45.7943 27.76 45.8623 27.788 45.9183 27.844C45.9743 27.9 46.0023 27.968 46.0023 28.048V33.868C46.0023 34.404 45.9103 34.88 45.7263 35.296C45.5503 35.712 45.2543 36.04 44.8383 36.28C44.4303 36.52 43.8783 36.64 43.1823 36.64ZM43.1583 33.088C43.5583 33.088 43.8783 32.996 44.1183 32.812C44.3663 32.628 44.5463 32.396 44.6583 32.116C44.7783 31.836 44.8423 31.552 44.8503 31.264C44.8583 31.152 44.8623 31.016 44.8623 30.856C44.8623 30.688 44.8583 30.548 44.8503 30.436C44.8423 30.148 44.7783 29.864 44.6583 29.584C44.5463 29.304 44.3663 29.072 44.1183 28.888C43.8783 28.704 43.5583 28.612 43.1583 28.612C42.7583 28.612 42.4383 28.704 42.1983 28.888C41.9583 29.064 41.7863 29.3 41.6823 29.596C41.5783 29.884 41.5183 30.196 41.5023 30.532C41.4943 30.74 41.4943 30.952 41.5023 31.168C41.5183 31.504 41.5783 31.82 41.6823 32.116C41.7863 32.404 41.9583 32.64 42.1983 32.824C42.4383 33 42.7583 33.088 43.1583 33.088Z" fill="#1B4B66"/>
<defs>
<clipPath id="clip0_2161_1297">
<rect width="24" height="24" fill="white" transform="translate(24)"/>
</clipPath>
</defs>
</svg>
