<svg width="90" height="56" viewBox="0 0 90 56" fill="none" xmlns="http://www.w3.org/2000/svg">
<rect width="90" height="56" fill="white"/>
<g clip-path="url(#clip0_1603_6290)">
<path d="M39.125 18.5C40.989 18.5 42.5 16.989 42.5 15.125C42.5 13.261 40.989 11.75 39.125 11.75C37.261 11.75 35.75 13.261 35.75 15.125C35.75 16.989 37.261 18.5 39.125 18.5Z" stroke="#1B4B66" stroke-width="2" stroke-linecap="round" stroke-linejoin="round"/>
<path d="M48.875 18.5C50.739 18.5 52.25 16.989 52.25 15.125C52.25 13.261 50.739 11.75 48.875 11.75C47.011 11.75 45.5 13.261 45.5 15.125C45.5 16.989 47.011 18.5 48.875 18.5Z" stroke="#1B4B66" stroke-width="2" stroke-linecap="round" stroke-linejoin="round"/>
<path d="M39.125 28.25C40.989 28.25 42.5 26.739 42.5 24.875C42.5 23.011 40.989 21.5 39.125 21.5C37.261 21.5 35.75 23.011 35.75 24.875C35.75 26.739 37.261 28.25 39.125 28.25Z" stroke="#1B4B66" stroke-width="2" stroke-linecap="round" stroke-linejoin="round"/>
<path d="M48.875 28.25C50.739 28.25 52.25 26.739 52.25 24.875C52.25 23.011 50.739 21.5 48.875 21.5C47.011 21.5 45.5 23.011 45.5 24.875C45.5 26.739 47.011 28.25 48.875 28.25Z" stroke="#1B4B66" stroke-width="2" stroke-linecap="round" stroke-linejoin="round"/>
</g>
<path d="M17.9039 42.12C17.1679 42.12 16.5559 41.984 16.0679 41.712C15.5879 41.44 15.2239 41.06 14.9759 40.572C14.7279 40.084 14.5919 39.516 14.5679 38.868C14.5599 38.54 14.5559 38.188 14.5559 37.812C14.5559 37.436 14.5599 37.076 14.5679 36.732C14.5919 36.084 14.7279 35.516 14.9759 35.028C15.2239 34.54 15.5879 34.16 16.0679 33.888C16.5559 33.616 17.1679 33.48 17.9039 33.48C18.4559 33.48 18.9399 33.556 19.3559 33.708C19.7719 33.86 20.1159 34.064 20.3879 34.32C20.6679 34.576 20.8799 34.864 21.0239 35.184C21.1679 35.496 21.2479 35.82 21.2639 36.156C21.2719 36.228 21.2479 36.288 21.1919 36.336C21.1439 36.384 21.0839 36.408 21.0119 36.408H20.3519C20.2799 36.408 20.2159 36.388 20.1599 36.348C20.1119 36.308 20.0759 36.236 20.0519 36.132C19.9159 35.508 19.6599 35.08 19.2839 34.848C18.9159 34.616 18.4519 34.5 17.8919 34.5C17.2519 34.5 16.7439 34.684 16.3679 35.052C15.9919 35.412 15.7879 35.992 15.7559 36.792C15.7319 37.448 15.7319 38.12 15.7559 38.808C15.7879 39.608 15.9919 40.192 16.3679 40.56C16.7439 40.92 17.2519 41.1 17.8919 41.1C18.4519 41.1 18.9159 40.984 19.2839 40.752C19.6599 40.52 19.9159 40.092 20.0519 39.468C20.0759 39.364 20.1119 39.292 20.1599 39.252C20.2159 39.212 20.2799 39.192 20.3519 39.192H21.0119C21.0839 39.192 21.1439 39.216 21.1919 39.264C21.2479 39.312 21.2719 39.372 21.2639 39.444C21.2479 39.78 21.1679 40.108 21.0239 40.428C20.8799 40.74 20.6679 41.024 20.3879 41.28C20.1159 41.536 19.7719 41.74 19.3559 41.892C18.9399 42.044 18.4559 42.12 17.9039 42.12ZM24.4561 42.12C24.0561 42.12 23.6921 42.04 23.3641 41.88C23.0361 41.72 22.7721 41.504 22.5721 41.232C22.3721 40.96 22.2721 40.652 22.2721 40.308C22.2721 39.756 22.4961 39.316 22.9441 38.988C23.3921 38.66 23.9761 38.444 24.6961 38.34L26.4841 38.088V37.74C26.4841 37.356 26.3721 37.056 26.1481 36.84C25.9321 36.624 25.5761 36.516 25.0801 36.516C24.7201 36.516 24.4281 36.588 24.2041 36.732C23.9881 36.876 23.8361 37.06 23.7481 37.284C23.7001 37.404 23.6161 37.464 23.4961 37.464H22.9561C22.8681 37.464 22.8001 37.44 22.7521 37.392C22.7121 37.336 22.6921 37.272 22.6921 37.2C22.6921 37.08 22.7361 36.932 22.8241 36.756C22.9201 36.58 23.0641 36.408 23.2561 36.24C23.4481 36.072 23.6921 35.932 23.9881 35.82C24.2921 35.7 24.6601 35.64 25.0921 35.64C25.5721 35.64 25.9761 35.704 26.3041 35.832C26.6321 35.952 26.8881 36.116 27.0721 36.324C27.2641 36.532 27.4001 36.768 27.4801 37.032C27.5681 37.296 27.6121 37.564 27.6121 37.836V41.724C27.6121 41.804 27.5841 41.872 27.5281 41.928C27.4801 41.976 27.4161 42 27.3361 42H26.7841C26.6961 42 26.6281 41.976 26.5801 41.928C26.5321 41.872 26.5081 41.804 26.5081 41.724V41.208C26.4041 41.352 26.2641 41.496 26.0881 41.64C25.9121 41.776 25.6921 41.892 25.4281 41.988C25.1641 42.076 24.8401 42.12 24.4561 42.12ZM24.7081 41.22C25.0361 41.22 25.3361 41.152 25.6081 41.016C25.8801 40.872 26.0921 40.652 26.2441 40.356C26.4041 40.06 26.4841 39.688 26.4841 39.24V38.904L25.0921 39.108C24.5241 39.188 24.0961 39.324 23.8081 39.516C23.5201 39.7 23.3761 39.936 23.3761 40.224C23.3761 40.448 23.4401 40.636 23.5681 40.788C23.7041 40.932 23.8721 41.04 24.0721 41.112C24.2801 41.184 24.4921 41.22 24.7081 41.22ZM31.7146 42C31.2666 42 30.9026 41.916 30.6226 41.748C30.3426 41.572 30.1386 41.328 30.0106 41.016C29.8826 40.696 29.8186 40.32 29.8186 39.888V36.72H28.8826C28.8026 36.72 28.7346 36.696 28.6786 36.648C28.6306 36.592 28.6066 36.524 28.6066 36.444V36.036C28.6066 35.956 28.6306 35.892 28.6786 35.844C28.7346 35.788 28.8026 35.76 28.8826 35.76H29.8186V33.756C29.8186 33.676 29.8426 33.612 29.8906 33.564C29.9466 33.508 30.0146 33.48 30.0946 33.48H30.6586C30.7386 33.48 30.8026 33.508 30.8506 33.564C30.9066 33.612 30.9346 33.676 30.9346 33.756V35.76H32.4226C32.5026 35.76 32.5666 35.788 32.6146 35.844C32.6706 35.892 32.6986 35.956 32.6986 36.036V36.444C32.6986 36.524 32.6706 36.592 32.6146 36.648C32.5666 36.696 32.5026 36.72 32.4226 36.72H30.9346V39.804C30.9346 40.18 30.9986 40.476 31.1266 40.692C31.2546 40.908 31.4826 41.016 31.8106 41.016H32.5426C32.6226 41.016 32.6866 41.044 32.7346 41.1C32.7906 41.148 32.8186 41.212 32.8186 41.292V41.724C32.8186 41.804 32.7906 41.872 32.7346 41.928C32.6866 41.976 32.6226 42 32.5426 42H31.7146ZM36.4501 42.12C35.6261 42.12 34.9701 41.868 34.4821 41.364C33.9941 40.852 33.7261 40.156 33.6781 39.276C33.6701 39.172 33.6661 39.04 33.6661 38.88C33.6661 38.712 33.6701 38.576 33.6781 38.472C33.7101 37.904 33.8421 37.408 34.0741 36.984C34.3061 36.552 34.6221 36.22 35.0221 35.988C35.4301 35.756 35.9061 35.64 36.4501 35.64C37.0581 35.64 37.5661 35.768 37.9741 36.024C38.3901 36.28 38.7061 36.644 38.9221 37.116C39.1381 37.588 39.2461 38.14 39.2461 38.772V38.976C39.2461 39.064 39.2181 39.132 39.1621 39.18C39.1141 39.228 39.0501 39.252 38.9701 39.252H34.8181C34.8181 39.26 34.8181 39.276 34.8181 39.3C34.8181 39.324 34.8181 39.344 34.8181 39.36C34.8341 39.688 34.9061 39.996 35.0341 40.284C35.1621 40.564 35.3461 40.792 35.5861 40.968C35.8261 41.144 36.1141 41.232 36.4501 41.232C36.7381 41.232 36.9781 41.188 37.1701 41.1C37.3621 41.012 37.5181 40.916 37.6381 40.812C37.7581 40.7 37.8381 40.616 37.8781 40.56C37.9501 40.456 38.0061 40.396 38.0461 40.38C38.0861 40.356 38.1501 40.344 38.2381 40.344H38.8141C38.8941 40.344 38.9581 40.368 39.0061 40.416C39.0621 40.456 39.0861 40.516 39.0781 40.596C39.0701 40.716 39.0061 40.864 38.8861 41.04C38.7661 41.208 38.5941 41.376 38.3701 41.544C38.1461 41.712 37.8741 41.852 37.5541 41.964C37.2341 42.068 36.8661 42.12 36.4501 42.12ZM34.8181 38.424H38.1061V38.388C38.1061 38.028 38.0381 37.708 37.9021 37.428C37.7741 37.148 37.5861 36.928 37.3381 36.768C37.0901 36.6 36.7941 36.516 36.4501 36.516C36.1061 36.516 35.8101 36.6 35.5621 36.768C35.3221 36.928 35.1381 37.148 35.0101 37.428C34.8821 37.708 34.8181 38.028 34.8181 38.388V38.424ZM43.237 44.64C42.693 44.64 42.245 44.568 41.893 44.424C41.549 44.28 41.277 44.104 41.077 43.896C40.885 43.696 40.745 43.492 40.657 43.284C40.577 43.084 40.533 42.924 40.525 42.804C40.517 42.724 40.541 42.656 40.597 42.6C40.661 42.544 40.729 42.516 40.801 42.516H41.377C41.449 42.516 41.509 42.532 41.557 42.564C41.605 42.596 41.645 42.664 41.677 42.768C41.725 42.888 41.797 43.02 41.893 43.164C41.989 43.316 42.137 43.444 42.337 43.548C42.537 43.66 42.817 43.716 43.177 43.716C43.553 43.716 43.869 43.664 44.125 43.56C44.381 43.464 44.573 43.288 44.701 43.032C44.837 42.784 44.905 42.44 44.905 42V41.184C44.713 41.432 44.461 41.64 44.149 41.808C43.837 41.968 43.445 42.048 42.973 42.048C42.525 42.048 42.141 41.972 41.821 41.82C41.501 41.66 41.237 41.448 41.029 41.184C40.829 40.912 40.677 40.604 40.573 40.26C40.477 39.916 40.421 39.556 40.405 39.18C40.397 38.956 40.397 38.736 40.405 38.52C40.421 38.144 40.477 37.784 40.573 37.44C40.677 37.096 40.829 36.788 41.029 36.516C41.237 36.244 41.501 36.032 41.821 35.88C42.141 35.72 42.525 35.64 42.973 35.64C43.453 35.64 43.849 35.732 44.161 35.916C44.481 36.092 44.741 36.308 44.941 36.564V36.048C44.941 35.968 44.965 35.9 45.013 35.844C45.069 35.788 45.137 35.76 45.217 35.76H45.769C45.849 35.76 45.917 35.788 45.973 35.844C46.029 35.9 46.057 35.968 46.057 36.048V41.868C46.057 42.404 45.965 42.88 45.781 43.296C45.605 43.712 45.309 44.04 44.893 44.28C44.485 44.52 43.933 44.64 43.237 44.64ZM43.213 41.088C43.613 41.088 43.933 40.996 44.173 40.812C44.421 40.628 44.601 40.396 44.713 40.116C44.833 39.836 44.897 39.552 44.905 39.264C44.913 39.152 44.917 39.016 44.917 38.856C44.917 38.688 44.913 38.548 44.905 38.436C44.897 38.148 44.833 37.864 44.713 37.584C44.601 37.304 44.421 37.072 44.173 36.888C43.933 36.704 43.613 36.612 43.213 36.612C42.813 36.612 42.493 36.704 42.253 36.888C42.013 37.064 41.841 37.3 41.737 37.596C41.633 37.884 41.573 38.196 41.557 38.532C41.549 38.74 41.549 38.952 41.557 39.168C41.573 39.504 41.633 39.82 41.737 40.116C41.841 40.404 42.013 40.64 42.253 40.824C42.493 41 42.813 41.088 43.213 41.088ZM50.3971 42.12C49.7891 42.12 49.2811 42.004 48.8731 41.772C48.4651 41.54 48.1531 41.22 47.9371 40.812C47.7211 40.396 47.6011 39.924 47.5771 39.396C47.5691 39.26 47.5651 39.088 47.5651 38.88C47.5651 38.664 47.5691 38.492 47.5771 38.364C47.6011 37.828 47.7211 37.356 47.9371 36.948C48.1611 36.54 48.4771 36.22 48.8851 35.988C49.2931 35.756 49.7971 35.64 50.3971 35.64C50.9971 35.64 51.5011 35.756 51.9091 35.988C52.3171 36.22 52.6291 36.54 52.8451 36.948C53.0691 37.356 53.1931 37.828 53.2171 38.364C53.2251 38.492 53.2291 38.664 53.2291 38.88C53.2291 39.088 53.2251 39.26 53.2171 39.396C53.1931 39.924 53.0731 40.396 52.8571 40.812C52.6411 41.22 52.3291 41.54 51.9211 41.772C51.5131 42.004 51.0051 42.12 50.3971 42.12ZM50.3971 41.196C50.8931 41.196 51.2891 41.04 51.5851 40.728C51.8811 40.408 52.0411 39.944 52.0651 39.336C52.0731 39.216 52.0771 39.064 52.0771 38.88C52.0771 38.696 52.0731 38.544 52.0651 38.424C52.0411 37.816 51.8811 37.356 51.5851 37.044C51.2891 36.724 50.8931 36.564 50.3971 36.564C49.9011 36.564 49.5011 36.724 49.1971 37.044C48.9011 37.356 48.7451 37.816 48.7291 38.424C48.7211 38.544 48.7171 38.696 48.7171 38.88C48.7171 39.064 48.7211 39.216 48.7291 39.336C48.7451 39.944 48.9011 40.408 49.1971 40.728C49.5011 41.04 49.9011 41.196 50.3971 41.196ZM55.0078 42C54.9278 42 54.8598 41.976 54.8038 41.928C54.7558 41.872 54.7318 41.804 54.7318 41.724V36.048C54.7318 35.968 54.7558 35.9 54.8038 35.844C54.8598 35.788 54.9278 35.76 55.0078 35.76H55.5598C55.6398 35.76 55.7078 35.788 55.7638 35.844C55.8198 35.9 55.8478 35.968 55.8478 36.048V36.576C56.0078 36.304 56.2278 36.1 56.5078 35.964C56.7878 35.828 57.1238 35.76 57.5158 35.76H57.9958C58.0758 35.76 58.1398 35.788 58.1878 35.844C58.2358 35.892 58.2598 35.956 58.2598 36.036V36.528C58.2598 36.608 58.2358 36.672 58.1878 36.72C58.1398 36.768 58.0758 36.792 57.9958 36.792H57.2758C56.8438 36.792 56.5038 36.92 56.2558 37.176C56.0078 37.424 55.8838 37.764 55.8838 38.196V41.724C55.8838 41.804 55.8558 41.872 55.7998 41.928C55.7438 41.976 55.6758 42 55.5958 42H55.0078ZM59.5663 42C59.4863 42 59.4183 41.976 59.3623 41.928C59.3143 41.872 59.2903 41.804 59.2903 41.724V36.036C59.2903 35.956 59.3143 35.892 59.3623 35.844C59.4183 35.788 59.4863 35.76 59.5663 35.76H60.1423C60.2223 35.76 60.2863 35.788 60.3343 35.844C60.3823 35.892 60.4063 35.956 60.4063 36.036V41.724C60.4063 41.804 60.3823 41.872 60.3343 41.928C60.2863 41.976 60.2223 42 60.1423 42H59.5663ZM59.4703 34.596C59.3903 34.596 59.3223 34.572 59.2663 34.524C59.2183 34.468 59.1943 34.4 59.1943 34.32V33.672C59.1943 33.592 59.2183 33.528 59.2663 33.48C59.3223 33.424 59.3903 33.396 59.4703 33.396H60.2263C60.3063 33.396 60.3703 33.424 60.4183 33.48C60.4743 33.528 60.5023 33.592 60.5023 33.672V34.32C60.5023 34.4 60.4743 34.468 60.4183 34.524C60.3703 34.572 60.3063 34.596 60.2263 34.596H59.4703ZM64.704 42.12C63.88 42.12 63.224 41.868 62.736 41.364C62.248 40.852 61.98 40.156 61.932 39.276C61.924 39.172 61.92 39.04 61.92 38.88C61.92 38.712 61.924 38.576 61.932 38.472C61.964 37.904 62.096 37.408 62.328 36.984C62.56 36.552 62.876 36.22 63.276 35.988C63.684 35.756 64.16 35.64 64.704 35.64C65.312 35.64 65.82 35.768 66.228 36.024C66.644 36.28 66.96 36.644 67.176 37.116C67.392 37.588 67.5 38.14 67.5 38.772V38.976C67.5 39.064 67.472 39.132 67.416 39.18C67.368 39.228 67.304 39.252 67.224 39.252H63.072C63.072 39.26 63.072 39.276 63.072 39.3C63.072 39.324 63.072 39.344 63.072 39.36C63.088 39.688 63.16 39.996 63.288 40.284C63.416 40.564 63.6 40.792 63.84 40.968C64.08 41.144 64.368 41.232 64.704 41.232C64.992 41.232 65.232 41.188 65.424 41.1C65.616 41.012 65.772 40.916 65.892 40.812C66.012 40.7 66.092 40.616 66.132 40.56C66.204 40.456 66.26 40.396 66.3 40.38C66.34 40.356 66.404 40.344 66.492 40.344H67.068C67.148 40.344 67.212 40.368 67.26 40.416C67.316 40.456 67.34 40.516 67.332 40.596C67.324 40.716 67.26 40.864 67.14 41.04C67.02 41.208 66.848 41.376 66.624 41.544C66.4 41.712 66.128 41.852 65.808 41.964C65.488 42.068 65.12 42.12 64.704 42.12ZM63.072 38.424H66.36V38.388C66.36 38.028 66.292 37.708 66.156 37.428C66.028 37.148 65.84 36.928 65.592 36.768C65.344 36.6 65.048 36.516 64.704 36.516C64.36 36.516 64.064 36.6 63.816 36.768C63.576 36.928 63.392 37.148 63.264 37.428C63.136 37.708 63.072 38.028 63.072 38.388V38.424ZM71.0949 42.12C70.6469 42.12 70.2629 42.064 69.9429 41.952C69.6229 41.84 69.3629 41.704 69.1629 41.544C68.9629 41.384 68.8109 41.224 68.7069 41.064C68.6109 40.904 68.5589 40.776 68.5509 40.68C68.5429 40.592 68.5709 40.524 68.6349 40.476C68.6989 40.428 68.7629 40.404 68.8269 40.404H69.3549C69.4029 40.404 69.4389 40.412 69.4629 40.428C69.4949 40.436 69.5349 40.468 69.5829 40.524C69.6869 40.636 69.8029 40.748 69.9309 40.86C70.0589 40.972 70.2149 41.064 70.3989 41.136C70.5909 41.208 70.8269 41.244 71.1069 41.244C71.5149 41.244 71.8509 41.168 72.1149 41.016C72.3789 40.856 72.5109 40.624 72.5109 40.32C72.5109 40.12 72.4549 39.96 72.3429 39.84C72.2389 39.72 72.0469 39.612 71.7669 39.516C71.4949 39.42 71.1189 39.32 70.6389 39.216C70.1589 39.104 69.7789 38.968 69.4989 38.808C69.2189 38.64 69.0189 38.444 68.8989 38.22C68.7789 37.988 68.7189 37.728 68.7189 37.44C68.7189 37.144 68.8069 36.86 68.9829 36.588C69.1589 36.308 69.4149 36.08 69.7509 35.904C70.0949 35.728 70.5229 35.64 71.0349 35.64C71.4509 35.64 71.8069 35.692 72.1029 35.796C72.3989 35.9 72.6429 36.032 72.8349 36.192C73.0269 36.344 73.1709 36.496 73.2669 36.648C73.3629 36.8 73.4149 36.928 73.4229 37.032C73.4309 37.112 73.4069 37.18 73.3509 37.236C73.2949 37.284 73.2309 37.308 73.1589 37.308H72.6549C72.5989 37.308 72.5509 37.296 72.5109 37.272C72.4789 37.248 72.4469 37.22 72.4149 37.188C72.3349 37.084 72.2389 36.98 72.1269 36.876C72.0229 36.772 71.8829 36.688 71.7069 36.624C71.5389 36.552 71.3149 36.516 71.0349 36.516C70.6349 36.516 70.3349 36.6 70.1349 36.768C69.9349 36.936 69.8349 37.148 69.8349 37.404C69.8349 37.556 69.8789 37.692 69.9669 37.812C70.0549 37.932 70.2229 38.04 70.4709 38.136C70.7189 38.232 71.0869 38.336 71.5749 38.448C72.1029 38.552 72.5189 38.692 72.8229 38.868C73.1269 39.044 73.3429 39.248 73.4709 39.48C73.5989 39.712 73.6629 39.98 73.6629 40.284C73.6629 40.62 73.5629 40.928 73.3629 41.208C73.1709 41.488 72.8829 41.712 72.4989 41.88C72.1229 42.04 71.6549 42.12 71.0949 42.12Z" fill="#1B4B66"/>
<defs>
<clipPath id="clip0_1603_6290">
<rect width="24" height="24" fill="white" transform="translate(32 8)"/>
</clipPath>
</defs>
</svg>
