<svg width="90" height="56" viewBox="0 0 90 56" fill="none" xmlns="http://www.w3.org/2000/svg">
<rect width="90" height="56" fill="white"/>
<g clip-path="url(#clip0_1603_6430)">
<path d="M34.2724 27.314C33.8935 27.7158 33.9122 28.3487 34.314 28.7276C34.7158 29.1065 35.3487 29.0878 35.7276 28.686L34.2724 27.314ZM52.2724 28.686C52.6513 29.0878 53.2842 29.1065 53.686 28.7276C54.0878 28.3487 54.1065 27.7158 53.7276 27.314L52.2724 28.686ZM47.5 15.5C47.5 17.433 45.933 19 44 19V21C47.0376 21 49.5 18.5376 49.5 15.5H47.5ZM44 19C42.067 19 40.5 17.433 40.5 15.5H38.5C38.5 18.5376 40.9624 21 44 21V19ZM40.5 15.5C40.5 13.567 42.067 12 44 12V10C40.9624 10 38.5 12.4624 38.5 15.5H40.5ZM44 12C45.933 12 47.5 13.567 47.5 15.5H49.5C49.5 12.4624 47.0376 10 44 10V12ZM35.7276 28.686C37.8933 26.389 40.8088 25 44 25V23C40.2052 23 36.7783 24.6562 34.2724 27.314L35.7276 28.686ZM44 25C47.1912 25 50.1067 26.389 52.2724 28.686L53.7276 27.314C51.2217 24.6562 47.7948 23 44 23V25Z" fill="#1B4B66"/>
</g>
<path d="M27.7302 42C27.6422 42 27.5742 41.976 27.5262 41.928C27.4782 41.872 27.4542 41.804 27.4542 41.724V33.888C27.4542 33.8 27.4782 33.732 27.5262 33.684C27.5742 33.628 27.6422 33.6 27.7302 33.6H30.7782C31.3702 33.6 31.8822 33.696 32.3142 33.888C32.7542 34.08 33.0942 34.368 33.3342 34.752C33.5742 35.128 33.6942 35.6 33.6942 36.168C33.6942 36.736 33.5742 37.208 33.3342 37.584C33.0942 37.96 32.7542 38.244 32.3142 38.436C31.8822 38.628 31.3702 38.724 30.7782 38.724H28.6542V41.724C28.6542 41.804 28.6262 41.872 28.5702 41.928C28.5222 41.976 28.4542 42 28.3662 42H27.7302ZM28.6422 37.716H30.7182C31.3102 37.716 31.7542 37.584 32.0502 37.32C32.3462 37.056 32.4942 36.672 32.4942 36.168C32.4942 35.672 32.3502 35.288 32.0622 35.016C31.7742 34.744 31.3262 34.608 30.7182 34.608H28.6422V37.716ZM35.2734 42C35.1934 42 35.1254 41.976 35.0694 41.928C35.0214 41.872 34.9974 41.804 34.9974 41.724V36.048C34.9974 35.968 35.0214 35.9 35.0694 35.844C35.1254 35.788 35.1934 35.76 35.2734 35.76H35.8254C35.9054 35.76 35.9734 35.788 36.0294 35.844C36.0854 35.9 36.1134 35.968 36.1134 36.048V36.576C36.2734 36.304 36.4934 36.1 36.7734 35.964C37.0534 35.828 37.3894 35.76 37.7814 35.76H38.2614C38.3414 35.76 38.4054 35.788 38.4534 35.844C38.5014 35.892 38.5254 35.956 38.5254 36.036V36.528C38.5254 36.608 38.5014 36.672 38.4534 36.72C38.4054 36.768 38.3414 36.792 38.2614 36.792H37.5414C37.1094 36.792 36.7694 36.92 36.5214 37.176C36.2734 37.424 36.1494 37.764 36.1494 38.196V41.724C36.1494 41.804 36.1214 41.872 36.0654 41.928C36.0094 41.976 35.9414 42 35.8614 42H35.2734ZM41.9948 42.12C41.3868 42.12 40.8788 42.004 40.4708 41.772C40.0628 41.54 39.7508 41.22 39.5348 40.812C39.3188 40.396 39.1988 39.924 39.1748 39.396C39.1668 39.26 39.1628 39.088 39.1628 38.88C39.1628 38.664 39.1668 38.492 39.1748 38.364C39.1988 37.828 39.3188 37.356 39.5348 36.948C39.7588 36.54 40.0748 36.22 40.4828 35.988C40.8908 35.756 41.3948 35.64 41.9948 35.64C42.5948 35.64 43.0988 35.756 43.5068 35.988C43.9148 36.22 44.2268 36.54 44.4428 36.948C44.6668 37.356 44.7908 37.828 44.8148 38.364C44.8228 38.492 44.8268 38.664 44.8268 38.88C44.8268 39.088 44.8228 39.26 44.8148 39.396C44.7908 39.924 44.6708 40.396 44.4548 40.812C44.2388 41.22 43.9268 41.54 43.5188 41.772C43.1108 42.004 42.6028 42.12 41.9948 42.12ZM41.9948 41.196C42.4908 41.196 42.8868 41.04 43.1828 40.728C43.4788 40.408 43.6388 39.944 43.6628 39.336C43.6708 39.216 43.6748 39.064 43.6748 38.88C43.6748 38.696 43.6708 38.544 43.6628 38.424C43.6388 37.816 43.4788 37.356 43.1828 37.044C42.8868 36.724 42.4908 36.564 41.9948 36.564C41.4988 36.564 41.0988 36.724 40.7948 37.044C40.4988 37.356 40.3428 37.816 40.3268 38.424C40.3188 38.544 40.3148 38.696 40.3148 38.88C40.3148 39.064 40.3188 39.216 40.3268 39.336C40.3428 39.944 40.4988 40.408 40.7948 40.728C41.0988 41.04 41.4988 41.196 41.9948 41.196ZM47.1591 42C47.0791 42 47.0111 41.976 46.9551 41.928C46.9071 41.872 46.8831 41.804 46.8831 41.724V36.72H45.8631C45.7831 36.72 45.7151 36.696 45.6591 36.648C45.6111 36.592 45.5871 36.524 45.5871 36.444V36.036C45.5871 35.956 45.6111 35.892 45.6591 35.844C45.7151 35.788 45.7831 35.76 45.8631 35.76H46.8831V35.16C46.8831 34.752 46.9511 34.396 47.0871 34.092C47.2231 33.78 47.4391 33.54 47.7351 33.372C48.0391 33.204 48.4431 33.12 48.9471 33.12H50.7951C50.8751 33.12 50.9391 33.148 50.9871 33.204C51.0431 33.252 51.0711 33.316 51.0711 33.396V33.804C51.0711 33.884 51.0431 33.952 50.9871 34.008C50.9391 34.056 50.8751 34.08 50.7951 34.08H48.9711C48.5951 34.08 48.3391 34.18 48.2031 34.38C48.0671 34.572 47.9991 34.852 47.9991 35.22V35.76H50.7951C50.8751 35.76 50.9391 35.788 50.9871 35.844C51.0431 35.892 51.0711 35.956 51.0711 36.036V41.724C51.0711 41.804 51.0431 41.872 50.9871 41.928C50.9391 41.976 50.8751 42 50.7951 42H50.2431C50.1551 42 50.0871 41.976 50.0391 41.928C49.9911 41.872 49.9671 41.804 49.9671 41.724V36.72H47.9991V41.724C47.9991 41.804 47.9711 41.872 47.9151 41.928C47.8671 41.976 47.8031 42 47.7231 42H47.1591ZM53.133 42C53.053 42 52.985 41.976 52.929 41.928C52.881 41.872 52.857 41.804 52.857 41.724V33.756C52.857 33.676 52.881 33.612 52.929 33.564C52.985 33.508 53.053 33.48 53.133 33.48H53.697C53.785 33.48 53.853 33.508 53.901 33.564C53.949 33.612 53.973 33.676 53.973 33.756V41.724C53.973 41.804 53.949 41.872 53.901 41.928C53.853 41.976 53.785 42 53.697 42H53.133ZM58.247 42.12C57.423 42.12 56.767 41.868 56.279 41.364C55.791 40.852 55.523 40.156 55.475 39.276C55.467 39.172 55.463 39.04 55.463 38.88C55.463 38.712 55.467 38.576 55.475 38.472C55.507 37.904 55.639 37.408 55.871 36.984C56.103 36.552 56.419 36.22 56.819 35.988C57.227 35.756 57.703 35.64 58.247 35.64C58.855 35.64 59.363 35.768 59.771 36.024C60.187 36.28 60.503 36.644 60.719 37.116C60.935 37.588 61.043 38.14 61.043 38.772V38.976C61.043 39.064 61.015 39.132 60.959 39.18C60.911 39.228 60.847 39.252 60.767 39.252H56.615C56.615 39.26 56.615 39.276 56.615 39.3C56.615 39.324 56.615 39.344 56.615 39.36C56.631 39.688 56.703 39.996 56.831 40.284C56.959 40.564 57.143 40.792 57.383 40.968C57.623 41.144 57.911 41.232 58.247 41.232C58.535 41.232 58.775 41.188 58.967 41.1C59.159 41.012 59.315 40.916 59.435 40.812C59.555 40.7 59.635 40.616 59.675 40.56C59.747 40.456 59.803 40.396 59.843 40.38C59.883 40.356 59.947 40.344 60.035 40.344H60.611C60.691 40.344 60.755 40.368 60.803 40.416C60.859 40.456 60.883 40.516 60.875 40.596C60.867 40.716 60.803 40.864 60.683 41.04C60.563 41.208 60.391 41.376 60.167 41.544C59.943 41.712 59.671 41.852 59.351 41.964C59.031 42.068 58.663 42.12 58.247 42.12ZM56.615 38.424H59.903V38.388C59.903 38.028 59.835 37.708 59.699 37.428C59.571 37.148 59.383 36.928 59.135 36.768C58.887 36.6 58.591 36.516 58.247 36.516C57.903 36.516 57.607 36.6 57.359 36.768C57.119 36.928 56.935 37.148 56.807 37.428C56.679 37.708 56.615 38.028 56.615 38.388V38.424Z" fill="#1B4B66"/>
<defs>
<clipPath id="clip0_1603_6430">
<rect width="24" height="24" fill="white" transform="translate(32 8)"/>
</clipPath>
</defs>
</svg>
