<svg width="90" height="56" viewBox="0 0 90 56" fill="none" xmlns="http://www.w3.org/2000/svg">
<rect width="90" height="56" fill="white"/>
<g clip-path="url(#clip0_25_260)">
<path d="M46.2495 27.4993V22.9992C46.2495 22.8003 46.1704 22.6095 46.0298 22.4689C45.8891 22.3282 45.6984 22.2492 45.4995 22.2492H42.4995C42.3005 22.2492 42.1098 22.3282 41.9691 22.4689C41.8285 22.6095 41.7495 22.8003 41.7495 22.9992V27.4993C41.7495 27.6982 41.6704 27.8889 41.5298 28.0296C41.3892 28.1702 41.1984 28.2492 40.9995 28.2493L36.5001 28.2499C36.4016 28.2499 36.3041 28.2305 36.2131 28.1928C36.122 28.1551 36.0394 28.0999 35.9697 28.0302C35.9 27.9606 35.8448 27.8779 35.8071 27.7869C35.7694 27.6959 35.75 27.5984 35.75 27.4999V18.8317C35.75 18.7272 35.7718 18.6239 35.8141 18.5283C35.8564 18.4328 35.9181 18.3471 35.9954 18.2768L43.4949 11.4579C43.633 11.3324 43.8129 11.2628 43.9995 11.2628C44.186 11.2628 44.3659 11.3324 44.504 11.4579L52.0045 18.2768C52.0818 18.3471 52.1436 18.4328 52.1859 18.5283C52.2282 18.6239 52.25 18.7272 52.25 18.8317V27.4999C52.25 27.5984 52.2306 27.6959 52.1929 27.7869C52.1552 27.8779 52.1 27.9606 52.0303 28.0302C51.9606 28.0999 51.878 28.1551 51.7869 28.1928C51.6959 28.2305 51.5984 28.2499 51.4999 28.2499L46.9994 28.2493C46.8005 28.2493 46.6097 28.1702 46.4691 28.0296C46.3285 27.8889 46.2494 27.6982 46.2495 27.4993V27.4993Z" stroke="#1B4B66" stroke-width="2" stroke-linecap="round" stroke-linejoin="round"/>
</g>
<path d="M28.0662 42V33.2727H29.383V37.0653H33.7338V33.2727H35.0549V42H33.7338V38.1946H29.383V42H28.0662ZM39.6273 42.1321C39.0137 42.1321 38.4782 41.9915 38.0208 41.7102C37.5634 41.429 37.2083 41.0355 36.9554 40.5298C36.7026 40.0241 36.5762 39.4332 36.5762 38.7571C36.5762 38.0781 36.7026 37.4844 36.9554 36.9759C37.2083 36.4673 37.5634 36.0724 38.0208 35.7912C38.4782 35.5099 39.0137 35.3693 39.6273 35.3693C40.2409 35.3693 40.7765 35.5099 41.2338 35.7912C41.6912 36.0724 42.0463 36.4673 42.2992 36.9759C42.552 37.4844 42.6784 38.0781 42.6784 38.7571C42.6784 39.4332 42.552 40.0241 42.2992 40.5298C42.0463 41.0355 41.6912 41.429 41.2338 41.7102C40.7765 41.9915 40.2409 42.1321 39.6273 42.1321ZM39.6316 41.0625C40.0293 41.0625 40.3588 40.9574 40.6202 40.7472C40.8816 40.5369 41.0748 40.2571 41.1998 39.9077C41.3276 39.5582 41.3915 39.1733 41.3915 38.7528C41.3915 38.3352 41.3276 37.9517 41.1998 37.6023C41.0748 37.25 40.8816 36.9673 40.6202 36.7543C40.3588 36.5412 40.0293 36.4347 39.6316 36.4347C39.231 36.4347 38.8986 36.5412 38.6344 36.7543C38.373 36.9673 38.1784 37.25 38.0506 37.6023C37.9256 37.9517 37.8631 38.3352 37.8631 38.7528C37.8631 39.1733 37.9256 39.5582 38.0506 39.9077C38.1784 40.2571 38.373 40.5369 38.6344 40.7472C38.8986 40.9574 39.231 41.0625 39.6316 41.0625ZM44.1007 42V35.4545H45.3237V36.5199H45.4047C45.541 36.1591 45.764 35.8778 46.0737 35.6761C46.3833 35.4716 46.7541 35.3693 47.1859 35.3693C47.6234 35.3693 47.9899 35.4716 48.2853 35.6761C48.5836 35.8807 48.8038 36.1619 48.9458 36.5199H49.014C49.1703 36.1705 49.4189 35.892 49.7598 35.6847C50.1007 35.4744 50.5069 35.3693 50.9785 35.3693C51.5723 35.3693 52.0566 35.5554 52.4316 35.9276C52.8095 36.2997 52.9984 36.8608 52.9984 37.6108V42H51.7243V37.7301C51.7243 37.2869 51.6035 36.9659 51.362 36.767C51.1206 36.5682 50.8322 36.4688 50.497 36.4688C50.0822 36.4688 49.7598 36.5966 49.5297 36.8523C49.2995 37.1051 49.1845 37.4304 49.1845 37.8281V42H47.9146V37.6491C47.9146 37.294 47.8038 37.0085 47.5822 36.7926C47.3606 36.5767 47.0723 36.4688 46.7172 36.4688C46.4757 36.4688 46.2527 36.5327 46.0481 36.6605C45.8464 36.7855 45.6831 36.9602 45.5581 37.1847C45.4359 37.4091 45.3748 37.669 45.3748 37.9645V42H44.1007ZM57.5272 42.1321C56.8823 42.1321 56.3269 41.9943 55.861 41.7188C55.3979 41.4403 55.04 41.0497 54.7871 40.5469C54.5371 40.0412 54.4121 39.4489 54.4121 38.7699C54.4121 38.0994 54.5371 37.5085 54.7871 36.9972C55.04 36.4858 55.3922 36.0866 55.8439 35.7997C56.2985 35.5128 56.8297 35.3693 57.4377 35.3693C57.807 35.3693 58.165 35.4304 58.5115 35.5526C58.8581 35.6747 59.1692 35.8665 59.4448 36.1278C59.7203 36.3892 59.9377 36.7287 60.0968 37.1463C60.2559 37.5611 60.3354 38.0653 60.3354 38.6591V39.1108H55.1323V38.1562H59.0868C59.0868 37.821 59.0186 37.5241 58.8823 37.2656C58.7459 37.0043 58.5542 36.7983 58.307 36.6477C58.0627 36.4972 57.7757 36.4219 57.4462 36.4219C57.0882 36.4219 56.7757 36.5099 56.5087 36.6861C56.2445 36.8594 56.04 37.0866 55.8951 37.3679C55.753 37.6463 55.682 37.9489 55.682 38.2756V39.0213C55.682 39.4588 55.7587 39.831 55.9121 40.1378C56.0684 40.4446 56.2857 40.679 56.5641 40.8409C56.8425 41 57.1678 41.0795 57.54 41.0795C57.7814 41.0795 58.0016 41.0455 58.2005 40.9773C58.3993 40.9062 58.5712 40.8011 58.7161 40.6619C58.861 40.5227 58.9718 40.3509 59.0485 40.1463L60.2544 40.3636C60.1578 40.7187 59.9846 41.0298 59.7346 41.2969C59.4874 41.5611 59.1763 41.767 58.8013 41.9148C58.4292 42.0597 58.0044 42.1321 57.5272 42.1321Z" fill="#1B4B66"/>
<defs>
<clipPath id="clip0_25_260">
<rect width="24" height="24" fill="white" transform="translate(32 8)"/>
</clipPath>
</defs>
</svg>
