<svg width="90" height="56" viewBox="0 0 90 56" fill="none" xmlns="http://www.w3.org/2000/svg">
<rect width="90" height="56" fill="white"/>
<g clip-path="url(#clip0_1603_6473)">
<path d="M51.5787 14.75H36.4212C36.2367 14.75 36.0586 14.8181 35.921 14.9412C35.7835 15.0642 35.6962 15.2337 35.6758 15.4172L34.3425 27.4172C34.3308 27.522 34.3414 27.6281 34.3736 27.7286C34.4057 27.829 34.4587 27.9216 34.529 28.0002C34.5994 28.0788 34.6855 28.1417 34.7818 28.1847C34.8781 28.2278 34.9824 28.25 35.0879 28.25H52.912C53.0175 28.25 53.1218 28.2278 53.2181 28.1847C53.3144 28.1417 53.4005 28.0788 53.4708 28.0002C53.5412 27.9216 53.5942 27.829 53.6263 27.7286C53.6585 27.6281 53.6691 27.522 53.6574 27.4172L52.3241 15.4172C52.3037 15.2337 52.2164 15.0642 52.0789 14.9412C51.9413 14.8181 51.7632 14.75 51.5787 14.75Z" stroke="#1B4B66" stroke-width="2" stroke-linecap="round" stroke-linejoin="round"/>
<path d="M40.25 13.75C40.25 12.7554 40.6451 11.8016 41.3483 11.0983C42.0516 10.3951 43.0054 10 44 10C44.9946 10 45.9484 10.3951 46.6517 11.0983C47.3549 11.8016 47.75 12.7554 47.75 13.75" stroke="#1B4B66" stroke-width="2" stroke-linecap="round" stroke-linejoin="round"/>
</g>
<path d="M34.4216 42C34.3336 42 34.2656 41.976 34.2176 41.928C34.1696 41.872 34.1456 41.804 34.1456 41.724V33.888C34.1456 33.8 34.1696 33.732 34.2176 33.684C34.2656 33.628 34.3336 33.6 34.4216 33.6H37.7096C38.3096 33.6 38.7976 33.7 39.1736 33.9C39.5576 34.092 39.8376 34.356 40.0136 34.692C40.1976 35.028 40.2896 35.404 40.2896 35.82C40.2896 36.148 40.2336 36.432 40.1216 36.672C40.0176 36.904 39.8856 37.096 39.7256 37.248C39.5656 37.392 39.4096 37.504 39.2576 37.584C39.5696 37.736 39.8456 37.984 40.0856 38.328C40.3336 38.672 40.4576 39.088 40.4576 39.576C40.4576 40.016 40.3576 40.42 40.1576 40.788C39.9576 41.156 39.6576 41.452 39.2576 41.676C38.8656 41.892 38.3776 42 37.7936 42H34.4216ZM35.3216 41.028H37.6376C38.1576 41.028 38.5576 40.888 38.8376 40.608C39.1176 40.328 39.2576 39.984 39.2576 39.576C39.2576 39.152 39.1176 38.804 38.8376 38.532C38.5576 38.252 38.1576 38.112 37.6376 38.112H35.3216V41.028ZM35.3216 37.152H37.5296C38.0416 37.152 38.4296 37.036 38.6936 36.804C38.9576 36.564 39.0896 36.24 39.0896 35.832C39.0896 35.424 38.9576 35.112 38.6936 34.896C38.4296 34.68 38.0416 34.572 37.5296 34.572H35.3216V37.152ZM43.7452 42.12C43.3452 42.12 42.9812 42.04 42.6532 41.88C42.3252 41.72 42.0612 41.504 41.8612 41.232C41.6612 40.96 41.5612 40.652 41.5612 40.308C41.5612 39.756 41.7852 39.316 42.2332 38.988C42.6812 38.66 43.2652 38.444 43.9852 38.34L45.7732 38.088V37.74C45.7732 37.356 45.6612 37.056 45.4372 36.84C45.2212 36.624 44.8652 36.516 44.3692 36.516C44.0092 36.516 43.7172 36.588 43.4932 36.732C43.2772 36.876 43.1252 37.06 43.0372 37.284C42.9892 37.404 42.9052 37.464 42.7852 37.464H42.2452C42.1572 37.464 42.0892 37.44 42.0412 37.392C42.0012 37.336 41.9812 37.272 41.9812 37.2C41.9812 37.08 42.0252 36.932 42.1132 36.756C42.2092 36.58 42.3532 36.408 42.5452 36.24C42.7372 36.072 42.9812 35.932 43.2772 35.82C43.5812 35.7 43.9492 35.64 44.3812 35.64C44.8612 35.64 45.2652 35.704 45.5932 35.832C45.9212 35.952 46.1772 36.116 46.3612 36.324C46.5532 36.532 46.6892 36.768 46.7692 37.032C46.8572 37.296 46.9012 37.564 46.9012 37.836V41.724C46.9012 41.804 46.8732 41.872 46.8172 41.928C46.7692 41.976 46.7052 42 46.6252 42H46.0732C45.9852 42 45.9172 41.976 45.8692 41.928C45.8212 41.872 45.7972 41.804 45.7972 41.724V41.208C45.6932 41.352 45.5532 41.496 45.3772 41.64C45.2012 41.776 44.9812 41.892 44.7172 41.988C44.4532 42.076 44.1292 42.12 43.7452 42.12ZM43.9972 41.22C44.3252 41.22 44.6252 41.152 44.8972 41.016C45.1692 40.872 45.3812 40.652 45.5332 40.356C45.6932 40.06 45.7732 39.688 45.7732 39.24V38.904L44.3812 39.108C43.8132 39.188 43.3852 39.324 43.0972 39.516C42.8092 39.7 42.6652 39.936 42.6652 40.224C42.6652 40.448 42.7292 40.636 42.8572 40.788C42.9932 40.932 43.1612 41.04 43.3612 41.112C43.5692 41.184 43.7812 41.22 43.9972 41.22ZM51.1823 44.64C50.6383 44.64 50.1903 44.568 49.8383 44.424C49.4943 44.28 49.2223 44.104 49.0223 43.896C48.8303 43.696 48.6903 43.492 48.6023 43.284C48.5223 43.084 48.4783 42.924 48.4703 42.804C48.4623 42.724 48.4863 42.656 48.5423 42.6C48.6063 42.544 48.6743 42.516 48.7463 42.516H49.3223C49.3943 42.516 49.4543 42.532 49.5023 42.564C49.5503 42.596 49.5903 42.664 49.6223 42.768C49.6703 42.888 49.7423 43.02 49.8383 43.164C49.9343 43.316 50.0823 43.444 50.2823 43.548C50.4823 43.66 50.7623 43.716 51.1223 43.716C51.4983 43.716 51.8143 43.664 52.0703 43.56C52.3263 43.464 52.5183 43.288 52.6463 43.032C52.7823 42.784 52.8503 42.44 52.8503 42V41.184C52.6583 41.432 52.4063 41.64 52.0943 41.808C51.7823 41.968 51.3903 42.048 50.9183 42.048C50.4703 42.048 50.0863 41.972 49.7663 41.82C49.4463 41.66 49.1823 41.448 48.9743 41.184C48.7743 40.912 48.6223 40.604 48.5183 40.26C48.4223 39.916 48.3663 39.556 48.3503 39.18C48.3423 38.956 48.3423 38.736 48.3503 38.52C48.3663 38.144 48.4223 37.784 48.5183 37.44C48.6223 37.096 48.7743 36.788 48.9743 36.516C49.1823 36.244 49.4463 36.032 49.7663 35.88C50.0863 35.72 50.4703 35.64 50.9183 35.64C51.3983 35.64 51.7943 35.732 52.1063 35.916C52.4263 36.092 52.6863 36.308 52.8863 36.564V36.048C52.8863 35.968 52.9103 35.9 52.9583 35.844C53.0143 35.788 53.0823 35.76 53.1623 35.76H53.7143C53.7943 35.76 53.8623 35.788 53.9183 35.844C53.9743 35.9 54.0023 35.968 54.0023 36.048V41.868C54.0023 42.404 53.9103 42.88 53.7263 43.296C53.5503 43.712 53.2543 44.04 52.8383 44.28C52.4303 44.52 51.8783 44.64 51.1823 44.64ZM51.1583 41.088C51.5583 41.088 51.8783 40.996 52.1183 40.812C52.3663 40.628 52.5463 40.396 52.6583 40.116C52.7783 39.836 52.8423 39.552 52.8503 39.264C52.8583 39.152 52.8623 39.016 52.8623 38.856C52.8623 38.688 52.8583 38.548 52.8503 38.436C52.8423 38.148 52.7783 37.864 52.6583 37.584C52.5463 37.304 52.3663 37.072 52.1183 36.888C51.8783 36.704 51.5583 36.612 51.1583 36.612C50.7583 36.612 50.4383 36.704 50.1983 36.888C49.9583 37.064 49.7863 37.3 49.6823 37.596C49.5783 37.884 49.5183 38.196 49.5023 38.532C49.4943 38.74 49.4943 38.952 49.5023 39.168C49.5183 39.504 49.5783 39.82 49.6823 40.116C49.7863 40.404 49.9583 40.64 50.1983 40.824C50.4383 41 50.7583 41.088 51.1583 41.088Z" fill="#1B4B66"/>
<defs>
<clipPath id="clip0_1603_6473">
<rect width="24" height="24" fill="white" transform="translate(32 8)"/>
</clipPath>
</defs>
</svg>
