<svg width="72" height="37" viewBox="0 0 72 37" fill="none" xmlns="http://www.w3.org/2000/svg">
<g clip-path="url(#clip0_2161_5156)">
<path d="M31.125 10.5C32.989 10.5 34.5 8.98896 34.5 7.125C34.5 5.26104 32.989 3.75 31.125 3.75C29.261 3.75 27.75 5.26104 27.75 7.125C27.75 8.98896 29.261 10.5 31.125 10.5Z" stroke="#1B4B66" stroke-width="2" stroke-linecap="round" stroke-linejoin="round"/>
<path d="M40.875 10.5C42.739 10.5 44.25 8.98896 44.25 7.125C44.25 5.26104 42.739 3.75 40.875 3.75C39.011 3.75 37.5 5.26104 37.5 7.125C37.5 8.98896 39.011 10.5 40.875 10.5Z" stroke="#1B4B66" stroke-width="2" stroke-linecap="round" stroke-linejoin="round"/>
<path d="M31.125 20.25C32.989 20.25 34.5 18.739 34.5 16.875C34.5 15.011 32.989 13.5 31.125 13.5C29.261 13.5 27.75 15.011 27.75 16.875C27.75 18.739 29.261 20.25 31.125 20.25Z" stroke="#1B4B66" stroke-width="2" stroke-linecap="round" stroke-linejoin="round"/>
<path d="M40.875 20.25C42.739 20.25 44.25 18.739 44.25 16.875C44.25 15.011 42.739 13.5 40.875 13.5C39.011 13.5 37.5 15.011 37.5 16.875C37.5 18.739 39.011 20.25 40.875 20.25Z" stroke="#1B4B66" stroke-width="2" stroke-linecap="round" stroke-linejoin="round"/>
</g>
<path d="M9.90394 34.12C9.16794 34.12 8.55594 33.984 8.06794 33.712C7.58794 33.44 7.22394 33.06 6.97594 32.572C6.72794 32.084 6.59194 31.516 6.56794 30.868C6.55994 30.54 6.55594 30.188 6.55594 29.812C6.55594 29.436 6.55994 29.076 6.56794 28.732C6.59194 28.084 6.72794 27.516 6.97594 27.028C7.22394 26.54 7.58794 26.16 8.06794 25.888C8.55594 25.616 9.16794 25.48 9.90394 25.48C10.4559 25.48 10.9399 25.556 11.3559 25.708C11.7719 25.86 12.1159 26.064 12.3879 26.32C12.6679 26.576 12.8799 26.864 13.0239 27.184C13.1679 27.496 13.2479 27.82 13.2639 28.156C13.2719 28.228 13.2479 28.288 13.1919 28.336C13.1439 28.384 13.0839 28.408 13.0119 28.408H12.3519C12.2799 28.408 12.2159 28.388 12.1599 28.348C12.1119 28.308 12.0759 28.236 12.0519 28.132C11.9159 27.508 11.6599 27.08 11.2839 26.848C10.9159 26.616 10.4519 26.5 9.89194 26.5C9.25194 26.5 8.74394 26.684 8.36794 27.052C7.99194 27.412 7.78794 27.992 7.75594 28.792C7.73194 29.448 7.73194 30.12 7.75594 30.808C7.78794 31.608 7.99194 32.192 8.36794 32.56C8.74394 32.92 9.25194 33.1 9.89194 33.1C10.4519 33.1 10.9159 32.984 11.2839 32.752C11.6599 32.52 11.9159 32.092 12.0519 31.468C12.0759 31.364 12.1119 31.292 12.1599 31.252C12.2159 31.212 12.2799 31.192 12.3519 31.192H13.0119C13.0839 31.192 13.1439 31.216 13.1919 31.264C13.2479 31.312 13.2719 31.372 13.2639 31.444C13.2479 31.78 13.1679 32.108 13.0239 32.428C12.8799 32.74 12.6679 33.024 12.3879 33.28C12.1159 33.536 11.7719 33.74 11.3559 33.892C10.9399 34.044 10.4559 34.12 9.90394 34.12ZM16.4561 34.12C16.0561 34.12 15.6921 34.04 15.3641 33.88C15.0361 33.72 14.7721 33.504 14.5721 33.232C14.3721 32.96 14.2721 32.652 14.2721 32.308C14.2721 31.756 14.4961 31.316 14.9441 30.988C15.3921 30.66 15.9761 30.444 16.6961 30.34L18.4841 30.088V29.74C18.4841 29.356 18.3721 29.056 18.1481 28.84C17.9321 28.624 17.5761 28.516 17.0801 28.516C16.7201 28.516 16.4281 28.588 16.2041 28.732C15.9881 28.876 15.8361 29.06 15.7481 29.284C15.7001 29.404 15.6161 29.464 15.4961 29.464H14.9561C14.8681 29.464 14.8001 29.44 14.7521 29.392C14.7121 29.336 14.6921 29.272 14.6921 29.2C14.6921 29.08 14.7361 28.932 14.8241 28.756C14.9201 28.58 15.0641 28.408 15.2561 28.24C15.4481 28.072 15.6921 27.932 15.9881 27.82C16.2921 27.7 16.6601 27.64 17.0921 27.64C17.5721 27.64 17.9761 27.704 18.3041 27.832C18.6321 27.952 18.8881 28.116 19.0721 28.324C19.2641 28.532 19.4001 28.768 19.4801 29.032C19.5681 29.296 19.6121 29.564 19.6121 29.836V33.724C19.6121 33.804 19.5841 33.872 19.5281 33.928C19.4801 33.976 19.4161 34 19.3361 34H18.7841C18.6961 34 18.6281 33.976 18.5801 33.928C18.5321 33.872 18.5081 33.804 18.5081 33.724V33.208C18.4041 33.352 18.2641 33.496 18.0881 33.64C17.9121 33.776 17.6921 33.892 17.4281 33.988C17.1641 34.076 16.8401 34.12 16.4561 34.12ZM16.7081 33.22C17.0361 33.22 17.3361 33.152 17.6081 33.016C17.8801 32.872 18.0921 32.652 18.2441 32.356C18.4041 32.06 18.4841 31.688 18.4841 31.24V30.904L17.0921 31.108C16.5241 31.188 16.0961 31.324 15.8081 31.516C15.5201 31.7 15.3761 31.936 15.3761 32.224C15.3761 32.448 15.4401 32.636 15.5681 32.788C15.7041 32.932 15.8721 33.04 16.0721 33.112C16.2801 33.184 16.4921 33.22 16.7081 33.22ZM23.7146 34C23.2666 34 22.9026 33.916 22.6226 33.748C22.3426 33.572 22.1386 33.328 22.0106 33.016C21.8826 32.696 21.8186 32.32 21.8186 31.888V28.72H20.8826C20.8026 28.72 20.7346 28.696 20.6786 28.648C20.6306 28.592 20.6066 28.524 20.6066 28.444V28.036C20.6066 27.956 20.6306 27.892 20.6786 27.844C20.7346 27.788 20.8026 27.76 20.8826 27.76H21.8186V25.756C21.8186 25.676 21.8426 25.612 21.8906 25.564C21.9466 25.508 22.0146 25.48 22.0946 25.48H22.6586C22.7386 25.48 22.8026 25.508 22.8506 25.564C22.9066 25.612 22.9346 25.676 22.9346 25.756V27.76H24.4226C24.5026 27.76 24.5666 27.788 24.6146 27.844C24.6706 27.892 24.6986 27.956 24.6986 28.036V28.444C24.6986 28.524 24.6706 28.592 24.6146 28.648C24.5666 28.696 24.5026 28.72 24.4226 28.72H22.9346V31.804C22.9346 32.18 22.9986 32.476 23.1266 32.692C23.2546 32.908 23.4826 33.016 23.8106 33.016H24.5426C24.6226 33.016 24.6866 33.044 24.7346 33.1C24.7906 33.148 24.8186 33.212 24.8186 33.292V33.724C24.8186 33.804 24.7906 33.872 24.7346 33.928C24.6866 33.976 24.6226 34 24.5426 34H23.7146ZM28.4501 34.12C27.6261 34.12 26.9701 33.868 26.4821 33.364C25.9941 32.852 25.7261 32.156 25.6781 31.276C25.6701 31.172 25.6661 31.04 25.6661 30.88C25.6661 30.712 25.6701 30.576 25.6781 30.472C25.7101 29.904 25.8421 29.408 26.0741 28.984C26.3061 28.552 26.6221 28.22 27.0221 27.988C27.4301 27.756 27.9061 27.64 28.4501 27.64C29.0581 27.64 29.5661 27.768 29.9741 28.024C30.3901 28.28 30.7061 28.644 30.9221 29.116C31.1381 29.588 31.2461 30.14 31.2461 30.772V30.976C31.2461 31.064 31.2181 31.132 31.1621 31.18C31.1141 31.228 31.0501 31.252 30.9701 31.252H26.8181C26.8181 31.26 26.8181 31.276 26.8181 31.3C26.8181 31.324 26.8181 31.344 26.8181 31.36C26.8341 31.688 26.9061 31.996 27.0341 32.284C27.1621 32.564 27.3461 32.792 27.5861 32.968C27.8261 33.144 28.1141 33.232 28.4501 33.232C28.7381 33.232 28.9781 33.188 29.1701 33.1C29.3621 33.012 29.5181 32.916 29.6381 32.812C29.7581 32.7 29.8381 32.616 29.8781 32.56C29.9501 32.456 30.0061 32.396 30.0461 32.38C30.0861 32.356 30.1501 32.344 30.2381 32.344H30.8141C30.8941 32.344 30.9581 32.368 31.0061 32.416C31.0621 32.456 31.0861 32.516 31.0781 32.596C31.0701 32.716 31.0061 32.864 30.8861 33.04C30.7661 33.208 30.5941 33.376 30.3701 33.544C30.1461 33.712 29.8741 33.852 29.5541 33.964C29.2341 34.068 28.8661 34.12 28.4501 34.12ZM26.8181 30.424H30.1061V30.388C30.1061 30.028 30.0381 29.708 29.9021 29.428C29.7741 29.148 29.5861 28.928 29.3381 28.768C29.0901 28.6 28.7941 28.516 28.4501 28.516C28.1061 28.516 27.8101 28.6 27.5621 28.768C27.3221 28.928 27.1381 29.148 27.0101 29.428C26.8821 29.708 26.8181 30.028 26.8181 30.388V30.424ZM35.237 36.64C34.693 36.64 34.245 36.568 33.893 36.424C33.549 36.28 33.277 36.104 33.077 35.896C32.885 35.696 32.745 35.492 32.657 35.284C32.577 35.084 32.533 34.924 32.525 34.804C32.517 34.724 32.541 34.656 32.597 34.6C32.661 34.544 32.729 34.516 32.801 34.516H33.377C33.449 34.516 33.509 34.532 33.557 34.564C33.605 34.596 33.645 34.664 33.677 34.768C33.725 34.888 33.797 35.02 33.893 35.164C33.989 35.316 34.137 35.444 34.337 35.548C34.537 35.66 34.817 35.716 35.177 35.716C35.553 35.716 35.869 35.664 36.125 35.56C36.381 35.464 36.573 35.288 36.701 35.032C36.837 34.784 36.905 34.44 36.905 34V33.184C36.713 33.432 36.461 33.64 36.149 33.808C35.837 33.968 35.445 34.048 34.973 34.048C34.525 34.048 34.141 33.972 33.821 33.82C33.501 33.66 33.237 33.448 33.029 33.184C32.829 32.912 32.677 32.604 32.573 32.26C32.477 31.916 32.421 31.556 32.405 31.18C32.397 30.956 32.397 30.736 32.405 30.52C32.421 30.144 32.477 29.784 32.573 29.44C32.677 29.096 32.829 28.788 33.029 28.516C33.237 28.244 33.501 28.032 33.821 27.88C34.141 27.72 34.525 27.64 34.973 27.64C35.453 27.64 35.849 27.732 36.161 27.916C36.481 28.092 36.741 28.308 36.941 28.564V28.048C36.941 27.968 36.965 27.9 37.013 27.844C37.069 27.788 37.137 27.76 37.217 27.76H37.769C37.849 27.76 37.917 27.788 37.973 27.844C38.029 27.9 38.057 27.968 38.057 28.048V33.868C38.057 34.404 37.965 34.88 37.781 35.296C37.605 35.712 37.309 36.04 36.893 36.28C36.485 36.52 35.933 36.64 35.237 36.64ZM35.213 33.088C35.613 33.088 35.933 32.996 36.173 32.812C36.421 32.628 36.601 32.396 36.713 32.116C36.833 31.836 36.897 31.552 36.905 31.264C36.913 31.152 36.917 31.016 36.917 30.856C36.917 30.688 36.913 30.548 36.905 30.436C36.897 30.148 36.833 29.864 36.713 29.584C36.601 29.304 36.421 29.072 36.173 28.888C35.933 28.704 35.613 28.612 35.213 28.612C34.813 28.612 34.493 28.704 34.253 28.888C34.013 29.064 33.841 29.3 33.737 29.596C33.633 29.884 33.573 30.196 33.557 30.532C33.549 30.74 33.549 30.952 33.557 31.168C33.573 31.504 33.633 31.82 33.737 32.116C33.841 32.404 34.013 32.64 34.253 32.824C34.493 33 34.813 33.088 35.213 33.088ZM42.3971 34.12C41.7891 34.12 41.2811 34.004 40.8731 33.772C40.4651 33.54 40.1531 33.22 39.9371 32.812C39.7211 32.396 39.6011 31.924 39.5771 31.396C39.5691 31.26 39.5651 31.088 39.5651 30.88C39.5651 30.664 39.5691 30.492 39.5771 30.364C39.6011 29.828 39.7211 29.356 39.9371 28.948C40.1611 28.54 40.4771 28.22 40.8851 27.988C41.2931 27.756 41.7971 27.64 42.3971 27.64C42.9971 27.64 43.5011 27.756 43.9091 27.988C44.3171 28.22 44.6291 28.54 44.8451 28.948C45.0691 29.356 45.1931 29.828 45.2171 30.364C45.2251 30.492 45.2291 30.664 45.2291 30.88C45.2291 31.088 45.2251 31.26 45.2171 31.396C45.1931 31.924 45.0731 32.396 44.8571 32.812C44.6411 33.22 44.3291 33.54 43.9211 33.772C43.5131 34.004 43.0051 34.12 42.3971 34.12ZM42.3971 33.196C42.8931 33.196 43.2891 33.04 43.5851 32.728C43.8811 32.408 44.0411 31.944 44.0651 31.336C44.0731 31.216 44.0771 31.064 44.0771 30.88C44.0771 30.696 44.0731 30.544 44.0651 30.424C44.0411 29.816 43.8811 29.356 43.5851 29.044C43.2891 28.724 42.8931 28.564 42.3971 28.564C41.9011 28.564 41.5011 28.724 41.1971 29.044C40.9011 29.356 40.7451 29.816 40.7291 30.424C40.7211 30.544 40.7171 30.696 40.7171 30.88C40.7171 31.064 40.7211 31.216 40.7291 31.336C40.7451 31.944 40.9011 32.408 41.1971 32.728C41.5011 33.04 41.9011 33.196 42.3971 33.196ZM47.0078 34C46.9278 34 46.8598 33.976 46.8038 33.928C46.7558 33.872 46.7318 33.804 46.7318 33.724V28.048C46.7318 27.968 46.7558 27.9 46.8038 27.844C46.8598 27.788 46.9278 27.76 47.0078 27.76H47.5598C47.6398 27.76 47.7078 27.788 47.7638 27.844C47.8198 27.9 47.8478 27.968 47.8478 28.048V28.576C48.0078 28.304 48.2278 28.1 48.5078 27.964C48.7878 27.828 49.1238 27.76 49.5158 27.76H49.9958C50.0758 27.76 50.1398 27.788 50.1878 27.844C50.2358 27.892 50.2598 27.956 50.2598 28.036V28.528C50.2598 28.608 50.2358 28.672 50.1878 28.72C50.1398 28.768 50.0758 28.792 49.9958 28.792H49.2758C48.8438 28.792 48.5038 28.92 48.2558 29.176C48.0078 29.424 47.8838 29.764 47.8838 30.196V33.724C47.8838 33.804 47.8558 33.872 47.7998 33.928C47.7438 33.976 47.6758 34 47.5958 34H47.0078ZM51.5663 34C51.4863 34 51.4183 33.976 51.3623 33.928C51.3143 33.872 51.2903 33.804 51.2903 33.724V28.036C51.2903 27.956 51.3143 27.892 51.3623 27.844C51.4183 27.788 51.4863 27.76 51.5663 27.76H52.1423C52.2223 27.76 52.2863 27.788 52.3343 27.844C52.3823 27.892 52.4063 27.956 52.4063 28.036V33.724C52.4063 33.804 52.3823 33.872 52.3343 33.928C52.2863 33.976 52.2223 34 52.1423 34H51.5663ZM51.4703 26.596C51.3903 26.596 51.3223 26.572 51.2663 26.524C51.2183 26.468 51.1943 26.4 51.1943 26.32V25.672C51.1943 25.592 51.2183 25.528 51.2663 25.48C51.3223 25.424 51.3903 25.396 51.4703 25.396H52.2263C52.3063 25.396 52.3703 25.424 52.4183 25.48C52.4743 25.528 52.5023 25.592 52.5023 25.672V26.32C52.5023 26.4 52.4743 26.468 52.4183 26.524C52.3703 26.572 52.3063 26.596 52.2263 26.596H51.4703ZM56.704 34.12C55.88 34.12 55.224 33.868 54.736 33.364C54.248 32.852 53.98 32.156 53.932 31.276C53.924 31.172 53.92 31.04 53.92 30.88C53.92 30.712 53.924 30.576 53.932 30.472C53.964 29.904 54.096 29.408 54.328 28.984C54.56 28.552 54.876 28.22 55.276 27.988C55.684 27.756 56.16 27.64 56.704 27.64C57.312 27.64 57.82 27.768 58.228 28.024C58.644 28.28 58.96 28.644 59.176 29.116C59.392 29.588 59.5 30.14 59.5 30.772V30.976C59.5 31.064 59.472 31.132 59.416 31.18C59.368 31.228 59.304 31.252 59.224 31.252H55.072C55.072 31.26 55.072 31.276 55.072 31.3C55.072 31.324 55.072 31.344 55.072 31.36C55.088 31.688 55.16 31.996 55.288 32.284C55.416 32.564 55.6 32.792 55.84 32.968C56.08 33.144 56.368 33.232 56.704 33.232C56.992 33.232 57.232 33.188 57.424 33.1C57.616 33.012 57.772 32.916 57.892 32.812C58.012 32.7 58.092 32.616 58.132 32.56C58.204 32.456 58.26 32.396 58.3 32.38C58.34 32.356 58.404 32.344 58.492 32.344H59.068C59.148 32.344 59.212 32.368 59.26 32.416C59.316 32.456 59.34 32.516 59.332 32.596C59.324 32.716 59.26 32.864 59.14 33.04C59.02 33.208 58.848 33.376 58.624 33.544C58.4 33.712 58.128 33.852 57.808 33.964C57.488 34.068 57.12 34.12 56.704 34.12ZM55.072 30.424H58.36V30.388C58.36 30.028 58.292 29.708 58.156 29.428C58.028 29.148 57.84 28.928 57.592 28.768C57.344 28.6 57.048 28.516 56.704 28.516C56.36 28.516 56.064 28.6 55.816 28.768C55.576 28.928 55.392 29.148 55.264 29.428C55.136 29.708 55.072 30.028 55.072 30.388V30.424ZM63.0949 34.12C62.6469 34.12 62.2629 34.064 61.9429 33.952C61.6229 33.84 61.3629 33.704 61.1629 33.544C60.9629 33.384 60.8109 33.224 60.7069 33.064C60.6109 32.904 60.5589 32.776 60.5509 32.68C60.5429 32.592 60.5709 32.524 60.6349 32.476C60.6989 32.428 60.7629 32.404 60.8269 32.404H61.3549C61.4029 32.404 61.4389 32.412 61.4629 32.428C61.4949 32.436 61.5349 32.468 61.5829 32.524C61.6869 32.636 61.8029 32.748 61.9309 32.86C62.0589 32.972 62.2149 33.064 62.3989 33.136C62.5909 33.208 62.8269 33.244 63.1069 33.244C63.5149 33.244 63.8509 33.168 64.1149 33.016C64.3789 32.856 64.5109 32.624 64.5109 32.32C64.5109 32.12 64.4549 31.96 64.3429 31.84C64.2389 31.72 64.0469 31.612 63.7669 31.516C63.4949 31.42 63.1189 31.32 62.6389 31.216C62.1589 31.104 61.7789 30.968 61.4989 30.808C61.2189 30.64 61.0189 30.444 60.8989 30.22C60.7789 29.988 60.7189 29.728 60.7189 29.44C60.7189 29.144 60.8069 28.86 60.9829 28.588C61.1589 28.308 61.4149 28.08 61.7509 27.904C62.0949 27.728 62.5229 27.64 63.0349 27.64C63.4509 27.64 63.8069 27.692 64.1029 27.796C64.3989 27.9 64.6429 28.032 64.8349 28.192C65.0269 28.344 65.1709 28.496 65.2669 28.648C65.3629 28.8 65.4149 28.928 65.4229 29.032C65.4309 29.112 65.4069 29.18 65.3509 29.236C65.2949 29.284 65.2309 29.308 65.1589 29.308H64.6549C64.5989 29.308 64.5509 29.296 64.5109 29.272C64.4789 29.248 64.4469 29.22 64.4149 29.188C64.3349 29.084 64.2389 28.98 64.1269 28.876C64.0229 28.772 63.8829 28.688 63.7069 28.624C63.5389 28.552 63.3149 28.516 63.0349 28.516C62.6349 28.516 62.3349 28.6 62.1349 28.768C61.9349 28.936 61.8349 29.148 61.8349 29.404C61.8349 29.556 61.8789 29.692 61.9669 29.812C62.0549 29.932 62.2229 30.04 62.4709 30.136C62.7189 30.232 63.0869 30.336 63.5749 30.448C64.1029 30.552 64.5189 30.692 64.8229 30.868C65.1269 31.044 65.3429 31.248 65.4709 31.48C65.5989 31.712 65.6629 31.98 65.6629 32.284C65.6629 32.62 65.5629 32.928 65.3629 33.208C65.1709 33.488 64.8829 33.712 64.4989 33.88C64.1229 34.04 63.6549 34.12 63.0949 34.12Z" fill="#1B4B66"/>
<defs>
<clipPath id="clip0_2161_5156">
<rect width="24" height="24" fill="white" transform="translate(24)"/>
</clipPath>
</defs>
</svg>
