<svg width="90" height="56" viewBox="0 0 90 56" fill="none" xmlns="http://www.w3.org/2000/svg">
<rect width="90" height="56" fill="white"/>
<g clip-path="url(#clip0_25_284)">
<path d="M51.5787 22.75H36.4212C36.2367 22.75 36.0586 22.8181 35.921 22.9412C35.7835 23.0642 35.6962 23.2337 35.6758 23.4172L34.3425 35.4172C34.3308 35.522 34.3414 35.6281 34.3736 35.7286C34.4057 35.829 34.4587 35.9216 34.529 36.0002C34.5994 36.0788 34.6855 36.1417 34.7818 36.1847C34.8781 36.2278 34.9824 36.25 35.0879 36.25H52.912C53.0175 36.25 53.1218 36.2278 53.2181 36.1847C53.3144 36.1417 53.4005 36.0788 53.4708 36.0002C53.5412 35.9216 53.5942 35.829 53.6263 35.7286C53.6585 35.6281 53.6691 35.522 53.6574 35.4172L52.3241 23.4172C52.3037 23.2337 52.2164 23.0642 52.0789 22.9412C51.9413 22.8181 51.7632 22.75 51.5787 22.75Z" stroke="#B6B6B6" stroke-width="2" stroke-linecap="round" stroke-linejoin="round"/>
<path d="M40.25 21.75C40.25 20.7554 40.6451 19.8016 41.3483 19.0983C42.0516 18.3951 43.0054 18 44 18C44.9946 18 45.9484 18.3951 46.6517 19.0983C47.3549 19.8016 47.75 20.7554 47.75 21.75" stroke="#B6B6B6" stroke-width="2" stroke-linecap="round" stroke-linejoin="round"/>
</g>
<defs>
<clipPath id="clip0_25_284">
<rect width="24" height="24" fill="white" transform="translate(32 16)"/>
</clipPath>
</defs>
</svg>
