<svg width="90" height="56" viewBox="0 0 90 56" fill="none" xmlns="http://www.w3.org/2000/svg">
<rect width="90" height="56" fill="white"/>
<g clip-path="url(#clip0_25_268)">
<path d="M39.125 26.5C40.989 26.5 42.5 24.989 42.5 23.125C42.5 21.261 40.989 19.75 39.125 19.75C37.261 19.75 35.75 21.261 35.75 23.125C35.75 24.989 37.261 26.5 39.125 26.5Z" stroke="#B6B6B6" stroke-width="2" stroke-linecap="round" stroke-linejoin="round"/>
<path d="M48.875 26.5C50.739 26.5 52.25 24.989 52.25 23.125C52.25 21.261 50.739 19.75 48.875 19.75C47.011 19.75 45.5 21.261 45.5 23.125C45.5 24.989 47.011 26.5 48.875 26.5Z" stroke="#B6B6B6" stroke-width="2" stroke-linecap="round" stroke-linejoin="round"/>
<path d="M39.125 36.25C40.989 36.25 42.5 34.739 42.5 32.875C42.5 31.011 40.989 29.5 39.125 29.5C37.261 29.5 35.75 31.011 35.75 32.875C35.75 34.739 37.261 36.25 39.125 36.25Z" stroke="#B6B6B6" stroke-width="2" stroke-linecap="round" stroke-linejoin="round"/>
<path d="M48.875 36.25C50.739 36.25 52.25 34.739 52.25 32.875C52.25 31.011 50.739 29.5 48.875 29.5C47.011 29.5 45.5 31.011 45.5 32.875C45.5 34.739 47.011 36.25 48.875 36.25Z" stroke="#B6B6B6" stroke-width="2" stroke-linecap="round" stroke-linejoin="round"/>
</g>
<defs>
<clipPath id="clip0_25_268">
<rect width="24" height="24" fill="white" transform="translate(32 16)"/>
</clipPath>
</defs>
</svg>
