<svg width="90" height="56" viewBox="0 0 90 56" fill="none" xmlns="http://www.w3.org/2000/svg">
<rect width="90" height="56" fill="white"/>
<g clip-path="url(#clip0_25_276)">
<path d="M34.2724 35.314C33.8935 35.7158 33.9122 36.3487 34.314 36.7276C34.7158 37.1065 35.3487 37.0878 35.7276 36.686L34.2724 35.314ZM52.2724 36.686C52.6513 37.0878 53.2842 37.1065 53.686 36.7276C54.0878 36.3487 54.1065 35.7158 53.7276 35.314L52.2724 36.686ZM47.5 23.5C47.5 25.433 45.933 27 44 27V29C47.0376 29 49.5 26.5376 49.5 23.5H47.5ZM44 27C42.067 27 40.5 25.433 40.5 23.5H38.5C38.5 26.5376 40.9624 29 44 29V27ZM40.5 23.5C40.5 21.567 42.067 20 44 20V18C40.9624 18 38.5 20.4624 38.5 23.5H40.5ZM44 20C45.933 20 47.5 21.567 47.5 23.5H49.5C49.5 20.4624 47.0376 18 44 18V20ZM35.7276 36.686C37.8933 34.389 40.8088 33 44 33V31C40.2052 31 36.7783 32.6562 34.2724 35.314L35.7276 36.686ZM44 33C47.1912 33 50.1067 34.389 52.2724 36.686L53.7276 35.314C51.2217 32.6562 47.7948 31 44 31V33Z" fill="#B6B6B6"/>
</g>
<defs>
<clipPath id="clip0_25_276">
<rect width="24" height="24" fill="white" transform="translate(32 16)"/>
</clipPath>
</defs>
</svg>
