<svg width="30" height="28" viewBox="0 0 30 28" fill="none" xmlns="http://www.w3.org/2000/svg">
<g filter="url(#filter0_dd_2029_4925)">
<path d="M15 18.25C15 18.25 5.625 13 5.625 6.62501C5.62519 5.49826 6.01561 4.40635 6.72989 3.53493C7.44416 2.66351 8.4382 2.06636 9.54299 1.84501C10.6478 1.62367 11.7951 1.79179 12.79 2.32079C13.7848 2.84979 14.5658 3.70702 15 4.74673L15 4.74673C15.4342 3.70702 16.2152 2.84979 17.21 2.32079C18.2049 1.79179 19.3522 1.62367 20.457 1.84501C21.5618 2.06636 22.5558 2.66351 23.2701 3.53493C23.9844 4.40635 24.3748 5.49826 24.375 6.62501C24.375 13 15 18.25 15 18.25Z" stroke="#1B4B66" stroke-width="2" stroke-linecap="round" stroke-linejoin="round" shape-rendering="crispEdges"/>
</g>
<defs>
<filter id="filter0_dd_2029_4925" x="0.625" y="0.75" width="28.75" height="26.5" filterUnits="userSpaceOnUse" color-interpolation-filters="sRGB">
<feFlood flood-opacity="0" result="BackgroundImageFix"/>
<feColorMatrix in="SourceAlpha" type="matrix" values="0 0 0 0 0 0 0 0 0 0 0 0 0 0 0 0 0 0 127 0" result="hardAlpha"/>
<feOffset dy="4"/>
<feGaussianBlur stdDeviation="2"/>
<feComposite in2="hardAlpha" operator="out"/>
<feColorMatrix type="matrix" values="0 0 0 0 0 0 0 0 0 0 0 0 0 0 0 0 0 0 0.25 0"/>
<feBlend mode="normal" in2="BackgroundImageFix" result="effect1_dropShadow_2029_4925"/>
<feColorMatrix in="SourceAlpha" type="matrix" values="0 0 0 0 0 0 0 0 0 0 0 0 0 0 0 0 0 0 127 0" result="hardAlpha"/>
<feOffset dy="4"/>
<feGaussianBlur stdDeviation="2"/>
<feComposite in2="hardAlpha" operator="out"/>
<feColorMatrix type="matrix" values="0 0 0 0 0 0 0 0 0 0 0 0 0 0 0 0 0 0 0.25 0"/>
<feBlend mode="normal" in2="effect1_dropShadow_2029_4925" result="effect2_dropShadow_2029_4925"/>
<feBlend mode="normal" in="SourceGraphic" in2="effect2_dropShadow_2029_4925" result="shape"/>
</filter>
</defs>
</svg>
