<svg width="20" height="19" viewBox="0 0 20 19" fill="none" xmlns="http://www.w3.org/2000/svg">
<path d="M0.272401 17.314C-0.106468 17.7158 -0.0878446 18.3487 0.313997 18.7276C0.715839 19.1065 1.34873 19.0878 1.7276 18.686L0.272401 17.314ZM18.2724 18.686C18.6513 19.0878 19.2842 19.1065 19.686 18.7276C20.0878 18.3487 20.1065 17.7158 19.7276 17.314L18.2724 18.686ZM13.5 5.5C13.5 7.433 11.933 9 10 9V11C13.0376 11 15.5 8.53757 15.5 5.5H13.5ZM10 9C8.067 9 6.5 7.433 6.5 5.5H4.5C4.5 8.53757 6.96243 11 10 11V9ZM6.5 5.5C6.5 3.567 8.067 2 10 2V0C6.96243 0 4.5 2.46243 4.5 5.5H6.5ZM10 2C11.933 2 13.5 3.567 13.5 5.5H15.5C15.5 2.46243 13.0376 0 10 0V2ZM1.7276 18.686C3.89332 16.389 6.8088 15 10 15V13C6.20523 13 2.77825 14.6562 0.272401 17.314L1.7276 18.686ZM10 15C13.1912 15 16.1067 16.389 18.2724 18.686L19.7276 17.314C17.2217 14.6562 13.7948 13 10 13V15Z" fill="#1B4B66"/>
</svg>
