<svg width="30" height="30" viewBox="0 0 30 30" fill="none" xmlns="http://www.w3.org/2000/svg">
<g filter="url(#filter0_dd_159_936)">
<path d="M15 20.25C15 20.25 5.625 15 5.625 8.62501C5.62519 7.49826 6.01561 6.40635 6.72989 5.53493C7.44416 4.66351 8.4382 4.06636 9.54299 3.84501C10.6478 3.62367 11.7951 3.79179 12.79 4.32079C13.7848 4.84979 14.5658 5.70702 15 6.74673L15 6.74673C15.4342 5.70702 16.2152 4.84979 17.21 4.32079C18.2049 3.79179 19.3522 3.62367 20.457 3.84501C21.5618 4.06636 22.5558 4.66351 23.2701 5.53493C23.9844 6.40635 24.3748 7.49826 24.375 8.62501C24.375 15 15 20.25 15 20.25Z" stroke="#1B4B66" stroke-width="2" stroke-linecap="round" stroke-linejoin="round" shape-rendering="crispEdges"/>
</g>
<defs>
<filter id="filter0_dd_159_936" x="0.625" y="2.75" width="28.75" height="26.5" filterUnits="userSpaceOnUse" color-interpolation-filters="sRGB">
<feFlood flood-opacity="0" result="BackgroundImageFix"/>
<feColorMatrix in="SourceAlpha" type="matrix" values="0 0 0 0 0 0 0 0 0 0 0 0 0 0 0 0 0 0 127 0" result="hardAlpha"/>
<feOffset dy="4"/>
<feGaussianBlur stdDeviation="2"/>
<feComposite in2="hardAlpha" operator="out"/>
<feColorMatrix type="matrix" values="0 0 0 0 0 0 0 0 0 0 0 0 0 0 0 0 0 0 0.25 0"/>
<feBlend mode="normal" in2="BackgroundImageFix" result="effect1_dropShadow_159_936"/>
<feColorMatrix in="SourceAlpha" type="matrix" values="0 0 0 0 0 0 0 0 0 0 0 0 0 0 0 0 0 0 127 0" result="hardAlpha"/>
<feOffset dy="4"/>
<feGaussianBlur stdDeviation="2"/>
<feComposite in2="hardAlpha" operator="out"/>
<feColorMatrix type="matrix" values="0 0 0 0 0 0 0 0 0 0 0 0 0 0 0 0 0 0 0.25 0"/>
<feBlend mode="normal" in2="effect1_dropShadow_159_936" result="effect2_dropShadow_159_936"/>
<feBlend mode="normal" in="SourceGraphic" in2="effect2_dropShadow_159_936" result="shape"/>
</filter>
</defs>
</svg>
